<?xml version="1.0" encoding="UTF-8"?>
<svg id="_Слой_1" xmlns="http://www.w3.org/2000/svg" version="1.1" viewBox="0 0 1000 700">
  <!-- Generator: Adobe Illustrator 29.1.0, SVG Export Plug-In . SVG Version: 2.1.0 Build 142)  -->
  <defs>
    <style>
      .st0 {
        fill: none;
        stroke: #adff02;
        stroke-miterlimit: 10;
        stroke-width: 15px;
      }

      .st1 {
        fill: #adff02;
      }
    </style>
  </defs>
  <path class="st0" d="M13.1,574.3c59.7-41.3,161-102.5,308.8-156.9,306.7-112.8,586.7-112.2,665-110.5"/>
  <g>
    <path class="st1" d="M202.9,259c.7,4.1,0,8.2-2,12.3-2,4.1-4.8,8.2-8.3,12.3-3.5,4.1-7.3,8.2-11.5,12.2-4.2,4-8,8-11.5,12-3.5,4-6.3,7.9-8.3,11.8-2.1,3.9-2.8,7.7-2.1,11.5.6,3.2,3.3,5.8,8.3,8,5,2.2,11.9,4,20.7,5.4,8.9,1.5,19.5,2.7,31.8,3.7,12.4,1,26.2,1.9,41.6,2.8,7.7.7,12.1,3.8,13.1,9.3.4,2.1.2,4.3-.4,6.4-.6,2.2-1.7,4.2-3.1,6-1.4,1.8-3.1,3.4-5.1,4.7-2,1.3-4.1,2.2-6.3,2.6-5.3.9-11.4,1.2-18.4.8-7-.4-14.3-1.1-21.9-2.1-7.6-1-15.2-2.3-22.9-3.8-7.7-1.5-14.9-2.9-21.5-4.1-6.7-1.2-12.6-2.2-17.7-2.9-5.1-.7-8.8-.9-11.3-.4-1.9.3-3.6,1.5-5,3.6-1.4,2.1-2.6,4.7-3.5,8-.9,3.3-1.4,7.1-1.6,11.5-.2,4.3,0,9,.4,14.1.5,5.7-.8,10.2-3.7,13.5-2.9,3.3-7.4,5.5-13.4,6.6-6.2,1.1-10.3-1.1-12.3-6.8-3.2-8.6-6.7-17.3-10.6-26-3.9-8.8-8-17.5-12.4-26.2-4.3-8.7-8.9-17.3-13.6-25.7-4.7-8.4-9.5-16.4-14.3-24.1-1.2-1.6-2.1-3.2-2.7-4.7-.6-1.5-1.1-3-1.4-4.6-.2-1.4,0-2.7.6-4.1.6-1.4,1.6-2.7,2.9-3.9,1.3-1.2,2.9-2.3,4.7-3.1,1.9-.9,3.8-1.5,5.9-1.9,4.3-.8,7.9-.5,10.8.8,2.9,1.3,5.9,3.6,9.2,6.7,1.6,1.5,3.2,3.5,4.8,6.1,1.7,2.6,3.3,5.4,4.9,8.3,1.6,3,3.2,6,4.9,9,1.6,3,3.2,5.7,4.6,8.2,1.5,2.4,2.8,4.3,4.1,5.8,1.3,1.5,2.4,2.1,3.4,1.9.8-.2,1.5-.6,1.9-1.5.4-.8,1-2.1,1.5-3.7,3.4-12.4,7.6-23.9,12.5-34.5,4.9-10.6,10.1-19.9,15.8-27.8,5.7-7.9,11.6-14.3,17.9-19.3,6.2-4.9,12.5-8,18.9-9.1,2.5-.5,5-.4,7.4,0s4.5,1.4,6.4,2.7c1.9,1.3,3.5,2.9,4.9,4.9,1.3,2,2.2,4.2,2.7,6.6Z"/>
    <path class="st1" d="M244.2,271.7c0-3.8,1.3-6.9,3.9-9.3,2.6-2.4,7.4-4.2,14.2-5.4,3.7-.7,6.7-.2,9.1,1.3,2.4,1.5,3.9,4,4.5,7.4,0,.5.1,1,0,1.5,0,.4,0,.9,0,1.5,0,7.1.4,14.4,1,21.9.6,7.5,1.6,15.1,2.9,22.7,1.8,9.8,4.3,18.9,7.6,27.3,3.3,8.4,7.8,15.4,13.4,21.1,5.6,5.7,12.7,9.7,21.1,12.1,8.4,2.4,18.6,2.5,30.7.3,6.7-1.2,12.5-3.5,17.2-6.8,4.7-3.4,8.4-7.5,11.1-12.4,2.7-4.9,4.3-10.4,5.1-16.5.7-6.1.5-12.5-.8-19.3-1.2-6.8-3.1-13.3-5.7-19.6-2.6-6.3-5.6-12.4-9.2-18.4-3.5-6-7.4-11.8-11.6-17.4-4.2-5.7-8.6-11.4-13.3-17.1-2-2.6-3.2-5-3.6-7.4-.7-4.1.8-8,4.6-11.6l5.7-5.4c2.5-2.4,5-3.8,7.6-4.3,3.9-.7,7.6,1.1,11.1,5.4,5.3,6.4,10.4,12.8,15.4,19.4,5,6.6,9.6,13.4,13.7,20.5,4.2,7.1,7.8,14.5,10.8,22.3,3.1,7.8,5.4,15.9,6.9,24.5,2.1,11.9,2.1,23.1-.1,33.7-2.2,10.5-6.3,19.9-12.3,28.2-6,8.3-13.8,15.3-23.3,21-9.5,5.7-20.5,9.6-32.9,11.8-13.5,2.4-25.9,2.2-37.3-.6-11.3-2.8-21.3-7.7-30-14.7-8.7-7-15.8-15.8-21.6-26.5-5.7-10.7-9.8-22.7-12.1-36-1.7-9.3-2.8-18.7-3.3-28.2-.6-9.5-.8-18.5-.8-26.9Z"/>
    <path class="st1" d="M495.6,372.2c-3,1.1-5.6,2.2-7.9,3.3-2.3,1.1-5.2,2-8.8,2.6-3.9.7-7.1.1-9.6-1.7-2.5-1.8-4-4.1-4.5-6.9-.4-2.2-.5-5.2-.4-8.8.1-3.7-.2-7.3-.8-10.9-3.2-13.5-6.6-26.8-10.2-39.9-3.6-13.1-7-25.1-10.1-36-3.1-10.9-5.8-20.2-8.1-27.9-2.2-7.7-3.6-13-4.1-15.8-.3-1.9-.2-3.7.5-5.6.7-1.8,1.7-3.5,3.2-5.1,1.5-1.6,3.3-2.9,5.4-4,2.1-1.1,4.5-1.9,7-2.3,5-.9,8.7-.8,11.3.3,2.6,1.1,4.5,3.3,5.6,6.6,7,22.2,12.9,42.6,17.6,61.3,4.7,18.7,8.8,36.3,12.3,52.7.4,2.4,1.4,4.2,3,5.2,1.5,1,3.4,1.4,5.5,1,4.2-.8,8.4-1.8,12.7-3,4.2-1.2,8.5-2.5,12.7-3.8,4.2-1.3,8.4-2.6,12.6-3.8,4.2-1.2,8.3-2.2,12.3-2.9,2.6-.5,4.8-.5,6.6-.2,1.7.3,3.2,1,4.2,1.9,1.1.9,1.9,2,2.4,3.2.5,1.3.9,2.5,1.1,3.8.4,2,.5,4,.4,6.1,0,2.1-.5,4-1.2,5.9-.8,1.8-1.9,3.4-3.5,4.9-1.6,1.4-3.7,2.5-6.4,3.2-12.7,3.6-24.4,6.7-35,9.2-10.6,2.5-19.1,5-25.5,7.3Z"/>
    <path class="st1" d="M614.4,358.7c-.6-3.5-1.6-8-2.8-13.5-1.3-5.5-2.7-11.7-4.3-18.3-1.6-6.7-3.4-13.8-5.3-21.3-1.9-7.5-3.8-14.9-5.8-22.3-2-7.4-3.9-14.5-5.7-21.4-1.8-6.9-3.5-13.2-5.1-18.8-2.3-8-4.5-13.7-6.7-17.3-2.2-3.5-4.9-5-8.3-4.4-3.2.6-5.1,1.8-5.8,3.8-.7,2-.9,4.3-.6,7,.3,2.7.8,5.5,1.4,8.7.6,3.1.6,6.1.1,8.9-.5,2.8-2,5.4-4.4,7.6-2.4,2.3-6.5,3.9-12.2,5-4,.7-7.7-.3-11.2-3.1-3.4-2.8-5.7-7.4-6.9-13.7-1.6-8.9-.4-17.4,3.5-25.5,3.9-8.2,10.2-15.6,18.8-22.5,8.6-6.8,19.3-12.8,32.2-18.1,12.9-5.2,27.5-9.3,43.9-12.2,11.7-2.1,22.8-2.7,33.1-1.9,10.4.8,19.6,2.9,27.6,6.2,8,3.3,14.7,7.7,19.9,13.3,5.2,5.5,8.5,12,9.8,19.4,1.5,8.3.5,16.7-3,25.2-3.5,8.5-8.9,16.6-16.3,24.5-7.4,7.8-16.4,15.1-27,21.9-10.7,6.8-22.3,12.6-35.1,17.6-3.6,1.3-5,3.9-4.3,7.8.5,2.6,1.2,5.9,2.3,9.8,1.1,3.9,2.2,8,3.3,12.2,1.1,4.3,2.3,8.5,3.4,12.6,1.1,4.2,2,7.9,2.6,11.1,1.1,5.9.4,10.4-1.9,13.4-2.3,3-6.1,5-11.5,6-5.1.9-9.2.7-12.3-.5-3.2-1.2-5-3.5-5.6-6.9ZM687.9,214.4c-.6-3.6-2.8-6.7-6.4-9.5-3.6-2.7-8.3-4.9-13.9-6.5-5.6-1.6-12-2.5-19-2.8-7.1-.3-14.3.3-21.8,1.6-3.7.7-6.8,1.3-9.2,2.1-2.4.7-4.3,1.5-5.7,2.4-1.4.9-2.2,1.9-2.6,3-.4,1.1-.5,2.5-.2,4,.2,1.1.8,3.5,1.8,7.3,1,3.8,2.2,8.2,3.7,13.1,1.4,5,2.9,10.2,4.5,15.6,1.6,5.4,3.1,10.3,4.5,14.6.9,3.2,1.7,5.3,2.5,6.2.8,1,1.8,1.3,3.1,1.1,3.6-.6,7.6-2,12-4,4.4-2,8.9-4.5,13.4-7.5,4.5-2.9,8.9-6.2,13.1-9.7,4.2-3.5,7.9-7.1,11.1-10.8,3.2-3.7,5.7-7.3,7.4-10.8,1.7-3.5,2.3-6.7,1.8-9.5Z"/>
    <path class="st1" d="M770.2,245.1c1.1,6.3,3.7,11.9,7.8,16.8,4.1,4.9,9,8.9,14.8,12,5.8,3.2,12.2,5.3,19.1,6.4,6.9,1.1,13.8,1,20.7-.2,2.1-.4,4.2-.9,6.4-1.7,2.1-.8,4-1.8,5.7-3.1,1.6-1.3,2.9-2.8,3.8-4.5.9-1.7,1.1-3.8.7-6.1-.8-4.4-3.1-8.5-7-12.3-3.9-3.8-8.7-7.3-14.6-10.7-5.8-3.4-12.4-6.6-19.7-9.7-7.3-3.1-14.7-6.2-22.2-9.2-7.5-3-14.9-6.1-22.2-9.2-7.3-3.1-13.9-6.3-19.7-9.7-5.8-3.4-10.7-7-14.6-10.8-3.9-3.8-6.2-7.9-7-12.4-.8-4.2-.4-8.3,1.1-12.4,1.5-4,3.8-7.8,6.9-11.4,3.1-3.6,6.8-7,11.1-10.1,4.3-3.2,8.9-6,13.8-8.5,4.9-2.5,9.9-4.6,14.9-6.3,5.1-1.7,10-3,14.7-3.9,3.5-.6,7.3-1.2,11.5-1.8,4.2-.6,8.2-.8,12-.7s7,.8,9.7,1.9c2.7,1.1,4.3,3.2,4.9,6.2.2.9.2,2.2.2,3.6,0,1.5-.5,4-1.4,7.5-.9,3.3-2.2,5.9-3.9,7.8-1.7,1.9-4,3.1-7.1,3.6-4.3.8-9,1.1-14,.9-5-.1-9.9.2-14.7,1.1-2.6.5-5.3,1.1-7.9,1.8-2.6.7-5,1.7-7.1,2.7-2.1,1.1-3.7,2.4-4.8,4-1.1,1.6-1.5,3.3-1.2,5.4.4,2,2.2,4,5.6,6,3.4,2,7.7,4.1,13.1,6.3,5.3,2.2,11.4,4.6,18.2,7.1,6.8,2.5,13.7,5.3,20.8,8.4,7.1,3,14.2,6.3,21.1,9.9,7,3.6,13.3,7.6,19,11.9,5.7,4.4,10.6,9.2,14.5,14.5,3.9,5.3,6.5,11,7.6,17.3,1.4,7.6.8,14.6-1.6,21-2.4,6.4-6.1,12.1-10.8,17-4.8,4.9-10.3,8.9-16.6,12-6.3,3.1-12.6,5.3-18.9,6.4-6.4,1.2-13.1,1.5-20,1.2-6.9-.4-13.6-1.4-20.2-3.1-6.6-1.7-12.9-4.1-19-7.1-6-3-11.4-6.6-16.2-10.8-4.8-4.2-8.8-9-12.1-14.2-3.3-5.3-5.5-11-6.6-17.3-.5-2.6-.8-5.3-.9-8.1-.1-2.8.1-5.2.7-7.5.6-2.2,1.6-4.1,3-5.8,1.5-1.6,3.5-2.7,6.1-3.1.8-.2,1.8-.2,2.9-.3,1.1,0,3,.1,5.8.5,3.2.4,6.2,1.4,9,3.1,2.7,1.6,4.4,4.1,5,7.4Z"/>
    <path class="st1" d="M179.9,478.8c-3.1.6-5.8,1.8-8.2,3.7-2.4,1.9-4.3,4.4-5.8,7.3-1.5,2.9-2.5,6.2-3,9.9-.5,3.7-.4,7.5.3,11.5.7,4.1,2.3,7.7,4.8,10.8,2.5,3.1,5.6,5.7,9.3,7.7,3.8,2,8,3.3,12.7,3.9,4.7.6,9.7.5,15-.4,3.8-.7,7.4-1.7,10.6-3,3.3-1.3,6.1-2.8,8.4-4.4,2.3-1.6,4.1-3.3,5.3-5.2,1.2-1.8,1.7-3.7,1.3-5.4-.2-1.4-.7-2.5-1.4-3.3-.7-.8-1.4-1.6-2.1-2.2-.8-.6-1.5-1.3-2.1-1.9-.6-.7-1.1-1.6-1.3-2.7-.2-1.1-.1-2.2.3-3.3.4-1.1,1-2.1,1.8-3.1.8-.9,1.8-1.8,3-2.4,1.2-.7,2.4-1.1,3.7-1.4,1.6-.3,3.2-.1,4.7.4,1.6.6,3,1.5,4.3,2.8,1.3,1.3,2.4,2.9,3.3,4.7.9,1.9,1.6,3.9,2,6.1.8,4.5.4,8.9-1.3,13.1-1.7,4.3-4.4,8.2-8.1,11.7-3.7,3.5-8.3,6.6-13.8,9.2-5.5,2.6-11.6,4.5-18.3,5.7-7.5,1.3-14.5,1.6-21.2.7-6.7-.9-12.6-2.7-17.8-5.5-5.2-2.8-9.5-6.4-12.9-10.9-3.4-4.5-5.7-9.6-6.7-15.5-1.1-6.4-1.1-12.7.1-18.8,1.2-6.1,3.4-11.6,6.5-16.6,3.1-5,7-9.1,11.8-12.5,4.7-3.4,10-5.6,15.9-6.7,2.6-.5,5-.6,7.3-.4,2.3.2,4.3.7,6.1,1.4s3.3,1.8,4.4,3,1.9,2.7,2.2,4.4c.2,1.3.2,2.6-.2,3.9-.4,1.3-.9,2.5-1.7,3.6-.8,1.1-1.7,2-2.9,2.8s-2.4,1.3-3.8,1.5c-1.4.3-2.6.1-3.6-.4-1-.5-1.9-1.1-2.8-1.8-.9-.7-1.8-1.3-2.7-1.8-.9-.5-2.1-.6-3.6-.4Z"/>
    <path class="st1" d="M262.4,473.8c-1,.6-2.1,1.1-3.1,1.2-2.7.5-4.8-.8-6.3-3.8-.4-.8-.7-1.4-.9-2-.2-.5-.3-1-.4-1.5-.5-2.6.7-4.8,3.4-6.6,5.4-3.4,11-6.3,16.8-8.8,5.8-2.5,11.7-4.3,17.9-5.4,2.9-.5,5.8-.7,8.7-.6,2.9.1,5.6.7,8.1,1.8,2.5,1.1,4.6,2.8,6.5,5,1.8,2.2,3.1,5.2,3.8,9,.5,2.7.4,5.3-.3,7.9-.6,2.6-1.7,5.2-3,7.7-1.4,2.5-3,5-4.9,7.4-1.9,2.4-3.9,4.6-6,6.7-2.1,2.1-4.2,4-6.2,5.8-2.1,1.8-4,3.3-5.7,4.7-1.4,1.2-2.1,2.3-1.9,3.3.2,1.2,1.2,1.9,3.1,2.3,6.3,1,12.7,1.9,19.2,2.6,6.5.7,13.2,1.6,19.9,2.8,3.2.6,5,2,5.4,4.3.2,1.1,0,2.3-.4,3.5-.4,1.2-1,2.4-1.6,3.5-1.2,2.7-3,4.2-5.3,4.6-.8.2-1.9.2-3.2,0-3.8-.7-8-1.5-12.3-2.2-4.4-.8-8.9-1.5-13.4-2.2-4.6-.7-9-1.4-13.4-2-4.4-.6-8.5-1.2-12.2-1.6-1.3-.1-2.2-.1-2.7,0-.4,0-.8.2-1,.5-.2.2-.3.7-.2,1.3,0,.2,0,.4.2.6,0,.2.2.5.2.8.3.8.7,1.9,1.2,3.2.5,1.3,1,2.7,1.5,4.1.5,1.4,1,2.7,1.4,4,.4,1.3.7,2.3.8,3.2.6,3.1-.7,5.6-3.9,7.4l-3.5,1.8c-.5.3-1,.5-1.4.6-.4.2-.9.3-1.4.4-3,.5-5.2-1-6.3-4.7-3.1-9.8-6.6-19.5-10.4-28.9-3.8-9.4-7.9-18.8-12.3-28-.3-.5-.4-1-.5-1.4-.1-.4-.2-.8-.2-1.1-.5-2.9.7-5.2,3.7-6.8,1.1-.6,2-1.1,2.7-1.4.7-.4,1.3-.6,1.7-.9.4-.2.8-.4,1-.5.2,0,.5-.2.7-.2,3-.5,5.2.8,6.7,4,1.9,4.1,3.8,8.1,5.5,11.9,1.7,3.9,3.4,7.7,4.9,11.5.8,1.9,1.8,2.7,2.9,2.5.3,0,.7-.2,1.1-.4.4-.2.9-.5,1.5-.9,1.6-1.3,3.5-2.8,5.8-4.6,2.3-1.8,4.6-3.8,7.1-6s4.8-4.4,7.2-6.8c2.3-2.4,4.4-4.7,6.2-6.9,1.8-2.3,3.2-4.4,4.2-6.5,1-2.1,1.4-3.9,1.1-5.5-.2-1-.5-1.9-.9-2.7-.5-.8-1.1-1.4-2.1-1.9s-2.1-.7-3.6-.8c-1.5,0-3.3,0-5.4.5-2.1.4-4.3,1-6.5,1.7s-4.4,1.7-6.6,2.7c-2.2,1-4.3,2.1-6.4,3.3-2.1,1.2-4,2.3-5.9,3.5Z"/>
    <path class="st1" d="M411.5,465.4c-.7.1-1.2.7-1.5,1.9-1.4,4.5-2.9,8.6-4.7,12.3-1.8,3.7-3.6,7-5.6,9.7s-4,5-6.1,6.6c-2.1,1.7-4.2,2.7-6.2,3-2,.4-3.9.3-5.7-.3-1.8-.6-4-1.8-6.3-3.9s-5.2-4.9-8.5-8.7c-3.3-3.8-7.3-8.7-12.2-14.8-.8-1-1.6-1.7-2.3-2.1-.7-.4-1.3-.6-1.8-.5-.7.1-1.2,1-1.6,2.6-.3,1.6-.5,3.9-.4,6.7,0,2.8.3,6.2.7,10.1.4,3.9,1.1,8.2,1.9,12.8.5,2.8,1.1,5.5,1.9,8.2.8,2.7,1.5,5.5,2,8.5.2,1,0,2-.3,2.9s-1,1.8-1.8,2.6c-.8.8-1.8,1.5-3,2.1-1.2.6-2.5,1-3.8,1.3-2.8.5-5.1-.8-6.9-3.9-1.8-3.1-3.4-8.3-4.7-15.6-1.7-9.2-2.6-17.7-3-25.5-.3-7.7,0-14.5.9-20.2.9-5.7,2.5-10.3,4.6-13.8,2.1-3.4,4.8-5.4,8-6,2.9-.5,5.9.6,9.1,3.5,3.2,2.8,7,7.6,11.4,14.5,1.8,2.8,3.6,5.3,5.4,7.7,1.9,2.3,3.7,4.4,5.4,6s3.4,2.9,4.9,3.7c1.5.8,2.8,1.2,3.9,1,1-.2,2-.6,2.9-1.2.9-.6,1.8-1.9,2.8-3.7,1-1.8,2-4.4,3.2-7.7,1.1-3.3,2.5-7.8,4.1-13.3.9-2.9,1.6-5.3,2.4-7.3.7-2,1.5-3.6,2.4-4.8.9-1.3,1.8-2.2,2.9-2.9s2.3-1.1,3.8-1.4c1.7-.3,3.6.3,5.6,1.8,2,1.5,4,3.7,6.2,6.4,2.1,2.8,4.3,6,6.5,9.8,2.2,3.8,4.4,7.7,6.6,11.9,2.2,4.2,4.4,8.4,6.6,12.7s4.3,8.4,6.3,12.3c.5,1.2.9,2,1.2,2.4.2.4.4,1,.5,1.7.2.9,0,1.9-.4,2.9-.4,1-1,2-1.8,2.9-.8.9-1.8,1.7-2.9,2.3-1.1.7-2.2,1.1-3.4,1.3-1.5.3-2.8.3-3.7.1-.9-.2-1.7-.7-2.4-1.6-.4-.4-1.1-1.7-2.1-3.7-1.1-2-2.3-4.5-3.7-7.3-1.4-2.8-3-5.8-4.7-8.9-1.7-3.1-3.3-6-4.9-8.6-1.6-2.6-3-4.7-4.4-6.4-1.3-1.7-2.4-2.4-3.2-2.3Z"/>
    <path class="st1" d="M563.1,475.7c2,1.3,3.1,2.8,3.4,4.4.3,1.7-.4,3.5-2,5.4-1.5,1.7-2.7,2.8-3.5,3.4s-1.6.9-2.4,1c-.8.1-1.7.1-2.6,0-.9-.2-1.9-.6-2.8-1.2l-5.7-3.3c-.9-.5-1.9-.7-2.9-.5-.7.1-1.3.4-1.9.9-2.3,1.7-4.7,3.2-7.4,4.4-2.6,1.2-5.5,2.1-8.6,2.7-3,.5-6.2.6-9.4.1-3.3-.5-6.3-1.4-9.1-2.9-2.8-1.5-5.2-3.4-7.3-5.9-2-2.4-3.4-5.4-4-8.8-.6-3.6-.5-6.9.4-9.9.9-3,2.4-5.8,4.3-8.5.4-.5.6-1,.8-1.4.2-.4.2-.8.1-1.3,0-.4-.2-.7-.4-1-.2-.3-.4-.7-.7-1.1-2.6-2.9-4.8-5.8-6.5-8.7-1.7-2.9-2.8-6-3.4-9.1-.7-3.9-.6-7.5.2-10.9.8-3.4,2.3-6.4,4.4-9.1,2.1-2.7,4.7-4.9,7.8-6.7,3.1-1.8,6.5-3.1,10.3-3.7,3.3-.6,6.7-.7,10-.3,3.4.4,6.5,1.2,9.3,2.6s5.2,3.3,7.3,5.8,3.4,5.5,4,9.2c.6,3.5.6,6.8-.2,9.7-.7,2.9-1.9,5.6-3.6,8.1-1.7,2.5-3.7,4.8-6.2,7-2.4,2.1-5,4.1-7.7,6-.2.3-.3.4-.2.6,0,.3.4.7.9,1.1.5.4,1.2.9,1.9,1.4l7.3,5.2c1.1.8,1.9,1.3,2.4,1.5.5.1.8.2,1,.2.3,0,.6-.3.7-.6.1-.4.2-.8.2-1.3,0-.5,0-1,0-1.5,0-.5-.1-.9-.2-1.2-.1-.6-.3-1.2-.5-1.8-.2-.6-.4-1.3-.6-2.2-.2-.9.2-1.8,1.1-2.5.9-.8,2.3-1.6,4.1-2.4,1.2-.6,2.3-1,3.2-1.3.9-.3,1.6-.4,2-.5,2.5-.4,4,0,4.6,1.6.3.9.6,1.7.9,2.5.3.8.5,1.6.7,2.5.4,2.1.5,4.4.3,6.8s-.7,5.1-1.7,8c-.2.7-.3,1.4-.1,2.1.2.9.8,1.8,1.8,2.5l6.3,3.6ZM507.5,429.5c.7,3.8,2.8,7.6,6.4,11.5.9,1.1,2,1.5,3.1,1.3.5,0,1.1-.4,1.8-.8,1.4-1,2.7-2.1,4.1-3.3s2.6-2.5,3.6-3.8c1-1.3,1.8-2.7,2.4-4.1s.7-2.8.4-4.2c-.3-1.5-.8-2.9-1.6-4.1-.8-1.2-1.8-2.1-3-2.8-1.2-.7-2.5-1.2-3.9-1.4-1.4-.2-2.9-.2-4.4,0-1.2.2-2.4.6-3.7,1.1-1.2.5-2.3,1.2-3.2,2.1-.9.9-1.6,2-2,3.4-.4,1.4-.5,3.1-.1,5.1ZM526.2,478.1c1.7-.3,2.8-.7,3.1-1.2.4-.5.5-1,.4-1.7-.2-.9-.7-1.7-1.6-2.4-2.1-1.3-4-2.6-6-3.8-1.9-1.3-3.7-2.5-5.4-3.8-1-.8-2-1.2-2.8-1-.8.1-1.4.7-1.8,1.7,0,.6-.1,1.2-.2,1.7,0,.6,0,1.2.1,1.8.6,3.6,2.3,6.1,5,7.5,2.7,1.4,5.8,1.8,9.2,1.2Z"/>
    <path class="st1" d="M618.6,454c-.2,0-.4.1-.8.2s-.7.2-1.1.4-.8.3-1.2.4c-.4.1-.7.2-.9.2-1.6.3-3-.1-4.4-1.2-1.4-1.1-2.3-2.7-2.7-4.9-.3-1.4,0-2.9.7-4.4.7-1.5,2-2.9,3.8-4.1.6-.4,1-.8,1.3-1.2.3-.4.4-1,.3-1.6-.3-1.8-.7-3.7-1.1-5.7-.4-2-1-4.3-1.6-7-.2-.5-.4-1-.8-1.5-.4-.4-.8-1-1.3-1.5-.5-.6-.9-1.2-1.3-1.9-.4-.7-.7-1.7-.9-2.8-.2-1-.2-2.3-.2-3.7s.5-2.8,1.2-4.2c.8-1.4,1.9-2.6,3.5-3.7s3.8-1.9,6.6-2.4c1.2-.2,2.1-.3,3-.2.8,0,1.5.2,2.2.4.6.2,1.2.4,1.7.5s1,.2,1.5,0c.9-.2,2.6-.6,5.2-1.4,2.6-.8,5.7-1.8,9.3-3.1,3.6-1.3,7.6-2.7,12-4.3,4.4-1.6,8.8-3.2,13.3-5,4.5-1.7,8.9-3.5,13.1-5.2,4.3-1.7,8.1-3.4,11.5-4.9,1.1-.5,2-.8,2.8-.9,1.2-.2,2.1-.1,2.9.3.8.4,1.4,1,1.9,1.7.5.7.8,1.5,1.1,2.5.3,1,.5,1.8.6,2.7.3,1.4,0,2.9-.7,4.3-.7,1.4-2.2,2.7-4.2,3.8-5.2,2.6-10.5,5-15.8,7.2-5.3,2.2-10.8,4.3-16.2,6.2-5.5,2-11,3.9-16.5,5.7s-11.1,3.6-16.6,5.4c-.8.2-1.3.6-1.6,1.2-.3.5-.4,1.2-.2,2l.6,3.4c.2.9.4,1.9.6,2.9s.5,1.9.9,2.7c.3.8.7,1.4,1.2,1.9s.9.6,1.5.5c1.3-.2,3.3-.9,6-1.9,2.7-1,5.7-2.3,9.1-3.7,3.4-1.4,6.9-3,10.6-4.6,3.7-1.7,7.2-3.2,10.4-4.6,3.3-1.4,6.2-2.6,8.7-3.7,2.5-1,4.3-1.6,5.3-1.8,1.5-.3,2.8,0,3.8,1.1,1,1,1.8,2.3,2.4,4,0,.3.1.5.2.7,0,.2.2.5.2.7.3,1.6,0,3.2-.7,4.7-.7,1.5-2.3,2.8-4.6,4-.6.3-1.9.9-3.8,1.7-1.9.8-4.2,1.8-6.8,2.9-2.6,1.1-5.4,2.3-8.4,3.6-3,1.3-6,2.5-8.9,3.8-2.9,1.2-5.6,2.4-8.2,3.5s-4.6,2-6.2,2.7c-1.4.7-2.3,1.1-2.5,1.4-.3.3-.4.6-.3.9.3,1.2,1.2,2.2,2.5,3.1,1.3.8,2.9,1.6,4.8,2.1,1.9.6,4,1,6.3,1.4,2.3.3,4.7.5,7.1.6,2.4,0,4.8,0,7.1-.1,2.3-.1,4.4-.4,6.4-.7.8-.1,2-.4,3.6-.6,1.5-.3,3.2-.6,5.1-1s3.7-.9,5.7-1.4c1.9-.5,3.7-1.1,5.2-1.7s2.8-1.2,3.7-1.9c.9-.7,1.3-1.3,1.2-2-.1-.6-.4-1.2-1-1.8-.5-.6-.9-1.3-1-2-.2-1.1,0-2.3.3-3.4.4-1.2,1-2.3,1.8-3.3.8-1,1.8-1.9,2.9-2.7,1.2-.7,2.4-1.2,3.6-1.5,1.6-.3,3.1-.2,4.6.2s2.7,1,3.9,1.9c1.2.9,2.1,1.9,2.9,3.1.8,1.2,1.3,2.5,1.5,3.9.7,3.7-.1,7-2.3,10.2-2.2,3.1-5.3,6-9.3,8.5-4,2.5-8.6,4.7-13.9,6.5-5.3,1.8-10.6,3.2-16.1,4.2-6.4,1.1-12.4,1.8-17.8,1.9s-10.5-.4-15-1.6c-4.5-1.1-8.6-2.9-12.2-5.4-3.6-2.5-6.7-5.7-9.4-9.7-.9-1.2-1.7-1.7-2.5-1.5Z"/>
    <path class="st1" d="M734.1,389.5c-1,.6-2.1,1.1-3.1,1.2-2.7.5-4.8-.8-6.3-3.8-.4-.8-.7-1.4-.9-2-.2-.5-.3-1-.4-1.5-.5-2.6.7-4.8,3.4-6.6,5.4-3.4,11-6.3,16.8-8.8,5.8-2.5,11.7-4.3,17.9-5.4,2.9-.5,5.8-.7,8.7-.6,2.9.1,5.6.7,8.1,1.8,2.5,1.1,4.6,2.8,6.5,5,1.8,2.2,3.1,5.2,3.8,9,.5,2.7.4,5.3-.3,7.9-.6,2.6-1.7,5.2-3,7.7-1.4,2.5-3,5-4.9,7.4-1.9,2.4-3.9,4.6-6,6.7s-4.2,4-6.2,5.8c-2.1,1.8-4,3.3-5.7,4.7-1.4,1.2-2.1,2.3-1.9,3.3.2,1.2,1.2,1.9,3.1,2.3,6.3,1,12.7,1.9,19.2,2.6,6.5.7,13.2,1.6,19.9,2.8,3.2.6,5,2,5.4,4.3.2,1.1,0,2.3-.4,3.5-.4,1.2-1,2.4-1.6,3.5-1.2,2.7-3,4.2-5.3,4.6-.8.1-1.9.2-3.2,0-3.8-.7-8-1.5-12.3-2.2-4.4-.8-8.9-1.5-13.4-2.2-4.5-.7-9-1.4-13.4-2-4.4-.6-8.5-1.2-12.2-1.6-1.3-.1-2.2-.1-2.7,0-.4,0-.8.2-1,.5-.2.2-.3.7-.2,1.3,0,.2,0,.4.2.6,0,.2.2.5.2.8.3.8.7,1.9,1.2,3.2.5,1.3,1,2.7,1.5,4.1.5,1.4,1,2.7,1.4,4,.4,1.3.7,2.3.8,3.2.6,3.1-.7,5.6-3.9,7.4l-3.5,1.8c-.5.3-1,.5-1.4.6-.4.2-.9.3-1.4.4-3,.5-5.2-1-6.3-4.7-3.1-9.8-6.6-19.5-10.4-28.9-3.8-9.4-7.9-18.8-12.3-28-.3-.5-.4-1-.6-1.4-.1-.4-.2-.8-.2-1.1-.5-2.9.7-5.2,3.7-6.8,1.1-.6,2-1.1,2.7-1.4.7-.4,1.3-.6,1.7-.9.4-.2.8-.4,1-.5.2,0,.5-.2.7-.2,3-.5,5.2.8,6.7,4,1.9,4.1,3.8,8.1,5.5,11.9s3.4,7.7,4.9,11.5c.8,1.9,1.8,2.7,2.9,2.5.3,0,.7-.2,1.1-.4.4-.2.9-.5,1.5-.9,1.6-1.3,3.5-2.8,5.8-4.6,2.3-1.8,4.6-3.8,7.1-6,2.4-2.2,4.8-4.4,7.2-6.8,2.3-2.4,4.4-4.7,6.2-6.9,1.8-2.3,3.2-4.4,4.2-6.5s1.4-3.9,1.1-5.5c-.2-1-.5-1.9-.9-2.7s-1.1-1.4-2.1-1.9-2.1-.7-3.6-.8c-1.5,0-3.3,0-5.4.5-2.1.4-4.3.9-6.5,1.7-2.2.8-4.4,1.7-6.6,2.7-2.2,1-4.3,2.1-6.4,3.3-2.1,1.2-4,2.3-5.9,3.5Z"/>
    <path class="st1" d="M833.4,446.5c-.3-1.8-.8-4.2-1.5-7.1-.7-2.9-1.4-6.1-2.3-9.6-.9-3.5-1.8-7.2-2.8-11.2-1-3.9-2-7.8-3-11.7-1-3.9-2-7.6-3-11.2-1-3.6-1.8-6.9-2.7-9.8-1.2-4.2-2.4-7.2-3.5-9.1-1.1-1.9-2.6-2.6-4.4-2.3-1.7.3-2.7,1-3,2-.4,1-.5,2.3-.3,3.6.2,1.4.4,2.9.7,4.5.3,1.6.3,3.2,0,4.7-.3,1.5-1.1,2.8-2.3,4-1.3,1.2-3.4,2.1-6.4,2.6-2.1.4-4.1-.2-5.9-1.7s-3-3.9-3.6-7.2c-.8-4.6-.2-9.1,1.8-13.4,2.1-4.3,5.3-8.2,9.8-11.8,4.5-3.6,10.1-6.7,16.9-9.5,6.8-2.7,14.4-4.9,23-6.4,6.1-1.1,11.9-1.4,17.4-1,5.4.4,10.3,1.5,14.5,3.2,4.2,1.7,7.7,4,10.4,7,2.7,2.9,4.5,6.3,5.2,10.2.8,4.4.3,8.8-1.6,13.2-1.8,4.4-4.7,8.7-8.5,12.8-3.9,4.1-8.6,7.9-14.2,11.5-5.6,3.5-11.7,6.6-18.4,9.2-1.9.7-2.6,2-2.3,4.1.2,1.4.7,3.1,1.2,5.1s1.1,4.2,1.7,6.4c.6,2.2,1.2,4.4,1.8,6.6s1,4.1,1.3,5.8c.6,3.1.2,5.4-1,7-1.2,1.6-3.2,2.6-6,3.1-2.7.5-4.8.4-6.5-.3-1.7-.6-2.6-1.9-3-3.6ZM871.9,370.9c-.3-1.9-1.5-3.5-3.4-5-1.9-1.4-4.3-2.6-7.3-3.4-2.9-.8-6.3-1.3-10-1.5s-7.5.1-11.5.8c-1.9.3-3.5.7-4.8,1.1-1.3.4-2.3.8-3,1.3-.7.5-1.2,1-1.4,1.6s-.2,1.3,0,2.1c0,.6.4,1.8.9,3.8.5,2,1.2,4.3,1.9,6.9s1.5,5.3,2.4,8.2c.8,2.9,1.6,5.4,2.4,7.7.5,1.7.9,2.8,1.3,3.3.4.5.9.7,1.6.6,1.9-.3,4-1,6.3-2.1,2.3-1.1,4.7-2.4,7.1-3.9,2.4-1.5,4.7-3.2,6.9-5.1,2.2-1.8,4.2-3.7,5.8-5.7,1.7-1.9,3-3.8,3.9-5.7.9-1.8,1.2-3.5.9-5Z"/>
  </g>
  <g>
    <path d="M187.2,259c.7,4.1,0,8.2-2,12.3-2,4.1-4.8,8.2-8.3,12.3-3.5,4.1-7.3,8.2-11.5,12.2-4.2,4-8,8-11.5,12-3.5,4-6.3,7.9-8.3,11.8-2.1,3.9-2.8,7.7-2.1,11.5.6,3.2,3.3,5.8,8.3,8,5,2.2,11.9,4,20.7,5.4,8.9,1.5,19.5,2.7,31.8,3.7,12.4,1,26.2,1.9,41.6,2.8,7.7.7,12.1,3.8,13.1,9.3.4,2.1.2,4.3-.4,6.4-.6,2.2-1.7,4.2-3.1,6-1.4,1.8-3.1,3.4-5.1,4.8-2,1.3-4.1,2.2-6.3,2.6-5.3.9-11.4,1.2-18.4.8-7-.4-14.3-1.1-21.9-2.1-7.6-1-15.2-2.3-22.9-3.8-7.7-1.5-14.9-2.9-21.5-4.1-6.7-1.2-12.6-2.2-17.7-2.9-5.1-.7-8.8-.9-11.3-.4-1.9.3-3.6,1.5-5,3.6-1.4,2.1-2.6,4.7-3.5,8-.9,3.3-1.4,7.1-1.6,11.5-.2,4.3,0,9,.4,14.1.5,5.7-.8,10.2-3.7,13.5-2.9,3.3-7.4,5.5-13.4,6.6-6.2,1.1-10.3-1.1-12.3-6.8-3.2-8.6-6.7-17.3-10.6-26-3.9-8.8-8-17.5-12.4-26.2-4.3-8.7-8.9-17.2-13.6-25.7-4.7-8.4-9.5-16.4-14.3-24.1-1.2-1.6-2.1-3.2-2.7-4.7-.6-1.5-1.1-3-1.4-4.6-.2-1.4,0-2.7.6-4.1.6-1.4,1.6-2.7,2.9-3.9,1.3-1.2,2.9-2.3,4.7-3.1,1.9-.9,3.8-1.5,5.9-1.9,4.3-.8,7.9-.5,10.8.8,2.9,1.3,5.9,3.6,9.2,6.7,1.6,1.5,3.2,3.5,4.8,6.1,1.7,2.6,3.3,5.4,4.9,8.3,1.6,3,3.2,6,4.9,9,1.6,3,3.2,5.7,4.6,8.2,1.5,2.4,2.8,4.3,4.1,5.8,1.3,1.5,2.4,2.1,3.4,1.9.8-.2,1.5-.6,1.9-1.5.4-.8,1-2.1,1.5-3.7,3.4-12.4,7.6-23.9,12.5-34.5,4.9-10.6,10.1-19.9,15.8-27.8,5.7-7.9,11.6-14.3,17.9-19.3,6.2-4.9,12.5-8,18.9-9.1,2.5-.5,5-.4,7.4,0s4.5,1.4,6.4,2.7c1.9,1.3,3.5,2.9,4.9,4.9,1.3,2,2.2,4.2,2.7,6.6Z"/>
    <path d="M228.5,271.7c0-3.8,1.3-6.9,3.9-9.3,2.6-2.4,7.4-4.2,14.2-5.4,3.7-.7,6.7-.2,9.1,1.3,2.4,1.5,3.9,4,4.5,7.4,0,.5.1,1,0,1.5,0,.4,0,.9,0,1.5,0,7.1.4,14.4,1,21.9.6,7.5,1.6,15.1,2.9,22.7,1.8,9.8,4.3,18.9,7.6,27.3,3.3,8.4,7.8,15.4,13.4,21.1,5.6,5.7,12.7,9.7,21.1,12.1,8.4,2.4,18.6,2.5,30.7.3,6.7-1.2,12.5-3.5,17.2-6.8,4.7-3.4,8.4-7.5,11.1-12.4,2.7-4.9,4.3-10.4,5.1-16.5.7-6.1.5-12.5-.8-19.3-1.2-6.8-3.1-13.3-5.7-19.6-2.6-6.3-5.6-12.4-9.2-18.4-3.5-6-7.4-11.8-11.6-17.4-4.2-5.7-8.6-11.4-13.3-17.1-2-2.6-3.2-5-3.6-7.4-.7-4.1.8-8,4.6-11.6l5.7-5.4c2.5-2.4,5-3.8,7.6-4.3,3.9-.7,7.6,1.1,11.1,5.4,5.3,6.4,10.4,12.8,15.4,19.4,5,6.6,9.6,13.4,13.7,20.5,4.2,7.1,7.8,14.5,10.8,22.3,3.1,7.8,5.4,15.9,6.9,24.5,2.1,11.9,2.1,23.1-.1,33.7-2.2,10.5-6.3,19.9-12.3,28.2-6,8.3-13.8,15.3-23.3,21-9.5,5.7-20.5,9.6-32.9,11.8-13.5,2.4-25.9,2.2-37.3-.6-11.3-2.8-21.3-7.7-30-14.7-8.7-7-15.8-15.8-21.6-26.5-5.7-10.7-9.8-22.7-12.1-36-1.7-9.3-2.8-18.7-3.3-28.2-.6-9.5-.8-18.5-.8-26.9Z"/>
    <path d="M479.9,372.2c-3,1.1-5.6,2.2-7.9,3.3-2.3,1.1-5.2,2-8.8,2.6-3.9.7-7.1.1-9.6-1.7-2.5-1.8-4-4.1-4.5-6.9-.4-2.2-.5-5.2-.4-8.8.1-3.7-.2-7.3-.8-10.9-3.2-13.5-6.6-26.8-10.2-39.9-3.6-13.1-7-25.1-10.1-36-3.1-10.9-5.8-20.2-8.1-27.9-2.2-7.7-3.6-13-4.1-15.8-.3-1.9-.2-3.7.5-5.6.7-1.8,1.7-3.5,3.2-5.1,1.5-1.6,3.3-2.9,5.4-4,2.1-1.1,4.5-1.9,7-2.3,5-.9,8.7-.8,11.3.3,2.6,1.1,4.5,3.3,5.6,6.6,7,22.2,12.9,42.6,17.6,61.3,4.7,18.7,8.8,36.3,12.3,52.7.4,2.4,1.4,4.2,3,5.2,1.5,1,3.4,1.4,5.5,1,4.2-.8,8.4-1.8,12.7-3,4.2-1.2,8.5-2.5,12.7-3.8,4.2-1.3,8.4-2.6,12.6-3.8,4.2-1.2,8.3-2.2,12.3-2.9,2.6-.5,4.8-.5,6.6-.2,1.7.3,3.2,1,4.2,1.9,1.1.9,1.9,2,2.4,3.2.5,1.3.9,2.5,1.1,3.8.4,2,.5,4,.4,6.1,0,2.1-.5,4-1.2,5.9-.8,1.8-1.9,3.4-3.5,4.9-1.6,1.4-3.7,2.5-6.4,3.2-12.7,3.6-24.4,6.7-35,9.2-10.6,2.5-19.1,5-25.5,7.3Z"/>
    <path d="M598.7,358.7c-.6-3.5-1.6-8-2.8-13.5-1.3-5.5-2.7-11.7-4.3-18.3-1.6-6.7-3.4-13.8-5.3-21.3-1.9-7.5-3.8-14.9-5.8-22.3-2-7.4-3.9-14.5-5.7-21.4-1.8-6.9-3.5-13.2-5.1-18.8-2.3-8-4.5-13.7-6.7-17.3-2.2-3.5-4.9-5-8.3-4.4-3.2.6-5.1,1.8-5.8,3.8-.7,2-.9,4.3-.6,7,.3,2.7.8,5.5,1.4,8.7.6,3.1.6,6.1.1,8.9-.5,2.8-2,5.4-4.4,7.6-2.4,2.3-6.5,3.9-12.2,5-4,.7-7.7-.3-11.2-3.1-3.4-2.8-5.7-7.4-6.9-13.7-1.6-8.9-.4-17.4,3.5-25.5,3.9-8.2,10.2-15.6,18.8-22.5,8.6-6.8,19.3-12.8,32.2-18.1,12.9-5.2,27.5-9.3,43.9-12.2,11.7-2.1,22.8-2.7,33.1-1.9,10.4.8,19.6,2.9,27.6,6.2,8,3.3,14.7,7.7,19.9,13.3,5.2,5.5,8.5,12,9.8,19.4,1.5,8.3.5,16.7-3,25.2-3.5,8.5-8.9,16.6-16.3,24.5-7.4,7.8-16.4,15.1-27,21.9-10.7,6.8-22.3,12.6-35.1,17.6-3.6,1.3-5,3.9-4.3,7.8.5,2.6,1.2,5.9,2.3,9.8,1.1,3.9,2.2,8,3.3,12.2,1.1,4.3,2.3,8.5,3.4,12.6,1.1,4.2,2,7.9,2.6,11.1,1.1,5.9.4,10.4-1.9,13.4-2.3,3-6.1,5-11.5,6-5.1.9-9.2.7-12.3-.5-3.2-1.2-5-3.5-5.6-6.9ZM672.1,214.4c-.6-3.6-2.8-6.7-6.4-9.5-3.6-2.7-8.3-4.9-13.9-6.5-5.6-1.6-12-2.5-19-2.8-7.1-.3-14.3.3-21.8,1.6-3.7.7-6.8,1.3-9.2,2.1-2.4.7-4.3,1.5-5.7,2.4-1.4.9-2.2,1.9-2.6,3-.4,1.1-.5,2.5-.2,4,.2,1.1.8,3.5,1.8,7.3,1,3.8,2.2,8.2,3.7,13.1,1.4,5,2.9,10.2,4.5,15.6,1.6,5.4,3.1,10.3,4.5,14.6.9,3.2,1.7,5.3,2.5,6.2.8,1,1.8,1.3,3.1,1.1,3.6-.6,7.6-2,12-4,4.4-2,8.9-4.5,13.4-7.5,4.5-2.9,8.9-6.2,13.1-9.7,4.2-3.5,7.9-7.1,11.1-10.8,3.2-3.7,5.7-7.3,7.4-10.8,1.7-3.5,2.3-6.7,1.8-9.5Z"/>
    <path d="M754.5,245.1c1.1,6.3,3.7,11.9,7.8,16.8,4.1,4.9,9,8.9,14.8,12,5.8,3.2,12.2,5.3,19.1,6.4,6.9,1.1,13.8,1,20.7-.2,2.1-.4,4.2-.9,6.4-1.7,2.1-.8,4-1.8,5.7-3.1,1.6-1.3,2.9-2.8,3.8-4.5.9-1.7,1.1-3.8.7-6.1-.8-4.4-3.1-8.5-7-12.3-3.9-3.8-8.7-7.3-14.6-10.7-5.8-3.4-12.4-6.6-19.7-9.7-7.3-3.1-14.7-6.2-22.2-9.2-7.5-3-14.9-6.1-22.2-9.2-7.3-3.1-13.9-6.3-19.7-9.7-5.8-3.4-10.7-7-14.6-10.8-3.9-3.8-6.2-7.9-7-12.4-.8-4.2-.4-8.3,1.1-12.4,1.5-4,3.8-7.8,6.9-11.4,3.1-3.6,6.8-7,11.1-10.1,4.3-3.2,8.9-6,13.8-8.5,4.9-2.5,9.9-4.6,14.9-6.3,5.1-1.7,10-3,14.7-3.9,3.5-.6,7.3-1.2,11.5-1.8,4.2-.6,8.2-.8,12-.7s7,.8,9.7,1.9c2.7,1.1,4.3,3.2,4.9,6.2.2.9.2,2.2.2,3.6,0,1.5-.5,4-1.4,7.5-.9,3.3-2.2,5.9-3.9,7.8-1.7,1.9-4,3.1-7.1,3.6-4.3.8-9,1.1-14,.9-5-.1-9.9.2-14.7,1.1-2.6.5-5.3,1.1-7.9,1.8-2.6.7-5,1.7-7.1,2.7-2.1,1.1-3.7,2.4-4.8,4-1.1,1.6-1.5,3.3-1.2,5.4.4,2,2.2,4,5.6,6,3.4,2,7.7,4.1,13.1,6.3,5.3,2.2,11.4,4.6,18.2,7.1,6.8,2.5,13.7,5.3,20.8,8.4,7.1,3,14.2,6.3,21.1,9.9,7,3.6,13.3,7.6,19,11.9,5.7,4.4,10.6,9.2,14.5,14.5,3.9,5.3,6.5,11,7.6,17.3,1.4,7.6.8,14.6-1.6,21-2.4,6.4-6.1,12.1-10.8,17-4.8,4.9-10.3,8.9-16.6,12-6.3,3.1-12.6,5.3-18.9,6.4-6.4,1.2-13.1,1.5-20,1.2-6.9-.4-13.6-1.4-20.2-3.1-6.6-1.7-12.9-4.1-19-7.1-6-3-11.4-6.6-16.2-10.8-4.8-4.2-8.8-9-12.1-14.2-3.3-5.3-5.5-11-6.6-17.3-.5-2.6-.8-5.3-.9-8.1-.1-2.8.1-5.2.7-7.5.6-2.2,1.6-4.1,3-5.8,1.5-1.6,3.5-2.7,6.1-3.1.8-.2,1.8-.2,2.9-.3,1.1,0,3,.1,5.8.5,3.2.4,6.2,1.4,9,3.1,2.7,1.6,4.4,4.1,5,7.4Z"/>
    <path d="M164.2,478.8c-3.1.6-5.8,1.8-8.2,3.7-2.4,1.9-4.3,4.4-5.8,7.3-1.5,2.9-2.5,6.2-3,9.9-.5,3.7-.4,7.5.3,11.5.7,4.1,2.3,7.7,4.8,10.8,2.5,3.1,5.6,5.7,9.3,7.7,3.8,2,8,3.3,12.7,3.9,4.7.6,9.7.5,15-.4,3.8-.7,7.4-1.7,10.6-3,3.3-1.3,6.1-2.8,8.4-4.4,2.3-1.6,4.1-3.3,5.3-5.2,1.2-1.8,1.7-3.7,1.3-5.4-.2-1.4-.7-2.5-1.4-3.3-.7-.8-1.4-1.6-2.1-2.2-.8-.6-1.5-1.3-2.1-1.9-.6-.7-1.1-1.6-1.3-2.7-.2-1.1-.1-2.2.3-3.3.4-1.1,1-2.1,1.8-3.1.8-.9,1.8-1.8,3-2.4,1.2-.7,2.4-1.1,3.7-1.4,1.6-.3,3.2-.1,4.7.4,1.6.6,3,1.5,4.3,2.8,1.3,1.3,2.4,2.9,3.3,4.7.9,1.9,1.6,3.9,2,6.1.8,4.5.4,8.9-1.3,13.1-1.7,4.3-4.4,8.2-8.1,11.7-3.7,3.5-8.3,6.6-13.8,9.2s-11.6,4.5-18.3,5.7c-7.5,1.3-14.5,1.6-21.2.7-6.7-.9-12.6-2.7-17.8-5.5-5.2-2.8-9.5-6.4-12.9-10.9s-5.7-9.6-6.7-15.5c-1.1-6.4-1.1-12.7.1-18.8,1.2-6.1,3.4-11.6,6.5-16.6,3.1-5,7-9.1,11.8-12.6,4.7-3.4,10-5.6,15.9-6.7,2.6-.5,5-.6,7.3-.4,2.3.2,4.3.7,6.1,1.4,1.8.8,3.3,1.8,4.4,3s1.9,2.7,2.2,4.4c.2,1.3.2,2.6-.2,3.9-.4,1.3-.9,2.5-1.7,3.6-.8,1.1-1.7,2-2.9,2.8-1.1.8-2.4,1.3-3.8,1.5-1.4.3-2.6.1-3.6-.4-1-.5-1.9-1.1-2.8-1.8-.9-.7-1.8-1.3-2.7-1.8-.9-.5-2.1-.6-3.6-.4Z"/>
    <path d="M246.7,473.8c-1,.6-2.1,1.1-3.1,1.2-2.7.5-4.8-.8-6.3-3.8-.4-.8-.7-1.4-.9-2-.2-.5-.3-1-.4-1.5-.5-2.6.7-4.8,3.4-6.6,5.4-3.4,11-6.3,16.8-8.8,5.8-2.5,11.7-4.3,17.9-5.4,2.9-.5,5.8-.7,8.7-.6,2.9.1,5.6.7,8.1,1.8,2.5,1.1,4.6,2.8,6.5,5,1.8,2.2,3.1,5.2,3.8,9,.5,2.7.4,5.3-.3,7.9-.6,2.6-1.7,5.2-3,7.7-1.4,2.5-3,5-4.9,7.4-1.9,2.4-3.9,4.6-6,6.7-2.1,2.1-4.2,4-6.2,5.8-2.1,1.8-4,3.3-5.7,4.7-1.4,1.2-2.1,2.3-1.9,3.3.2,1.2,1.2,1.9,3.1,2.3,6.3,1,12.7,1.9,19.2,2.6,6.5.7,13.2,1.6,19.9,2.8,3.2.6,5,2,5.4,4.3.2,1.1,0,2.3-.4,3.5-.4,1.2-1,2.4-1.6,3.5-1.2,2.7-3,4.2-5.3,4.6-.8.1-1.9.2-3.2,0-3.8-.7-8-1.5-12.3-2.2-4.4-.8-8.9-1.5-13.4-2.2-4.6-.7-9-1.4-13.4-2-4.4-.6-8.5-1.2-12.2-1.6-1.3-.1-2.2-.1-2.7,0-.4,0-.8.2-1,.5-.2.2-.3.7-.2,1.3,0,.2,0,.4.2.6,0,.2.2.5.2.8.3.8.7,1.9,1.2,3.2.5,1.3,1,2.7,1.5,4.1.5,1.4,1,2.7,1.4,4,.4,1.3.7,2.3.8,3.2.6,3.1-.7,5.6-3.9,7.4l-3.5,1.8c-.5.3-1,.5-1.4.6-.4.2-.9.3-1.4.4-3,.5-5.2-1-6.3-4.7-3.1-9.8-6.6-19.5-10.4-28.9-3.8-9.4-7.9-18.8-12.3-28-.3-.5-.4-1-.5-1.4-.1-.4-.2-.8-.2-1.1-.5-2.9.7-5.2,3.7-6.8,1.1-.6,2-1.1,2.7-1.4.7-.4,1.3-.6,1.7-.9.4-.2.8-.4,1-.5.2,0,.5-.2.7-.2,3-.5,5.2.8,6.7,4,1.9,4.1,3.8,8.1,5.5,11.9,1.7,3.9,3.4,7.7,4.9,11.5.8,1.9,1.8,2.7,2.9,2.5.3,0,.7-.2,1.1-.4.4-.2.9-.5,1.5-.9,1.6-1.3,3.5-2.8,5.8-4.6,2.3-1.8,4.6-3.8,7.1-6s4.8-4.4,7.2-6.8c2.3-2.4,4.4-4.7,6.2-6.9,1.8-2.3,3.2-4.4,4.2-6.5,1-2.1,1.4-3.9,1.1-5.5-.2-1-.5-1.9-.9-2.7-.5-.8-1.1-1.4-2.1-1.9s-2.1-.7-3.6-.8c-1.5,0-3.3,0-5.4.5-2.1.4-4.3,1-6.5,1.7s-4.4,1.7-6.6,2.7c-2.2,1-4.3,2.1-6.4,3.3-2.1,1.2-4,2.3-5.9,3.5Z"/>
    <path d="M395.8,465.4c-.7.1-1.2.7-1.5,1.9-1.4,4.5-2.9,8.6-4.7,12.3-1.8,3.7-3.6,7-5.6,9.7-2,2.7-4,5-6.1,6.6-2.1,1.7-4.2,2.7-6.2,3-2,.4-3.9.3-5.7-.3-1.8-.6-4-1.8-6.3-3.9-2.4-2-5.2-4.9-8.5-8.7-3.3-3.8-7.3-8.7-12.2-14.8-.8-1-1.6-1.7-2.3-2.1-.7-.4-1.3-.6-1.8-.5-.7.1-1.2,1-1.6,2.6-.3,1.6-.5,3.9-.4,6.7,0,2.8.3,6.2.7,10.1.4,3.9,1.1,8.2,1.9,12.8.5,2.8,1.1,5.5,1.9,8.2.8,2.7,1.5,5.5,2,8.5.2,1,0,2-.3,2.9s-1,1.8-1.8,2.6c-.8.8-1.8,1.5-3,2.1-1.2.6-2.5,1-3.8,1.3-2.8.5-5.1-.8-6.9-3.9-1.8-3.1-3.4-8.3-4.7-15.6-1.7-9.2-2.6-17.7-3-25.5-.3-7.7,0-14.5.9-20.2.9-5.7,2.5-10.3,4.6-13.7,2.1-3.4,4.8-5.4,8-6,2.9-.5,5.9.6,9.1,3.5,3.2,2.8,7,7.6,11.4,14.5,1.8,2.8,3.6,5.3,5.4,7.7,1.9,2.3,3.7,4.4,5.4,6s3.4,2.9,4.9,3.7c1.5.8,2.8,1.2,3.9,1,1-.2,2-.6,2.9-1.2.9-.6,1.8-1.9,2.8-3.7,1-1.8,2-4.4,3.2-7.7,1.1-3.3,2.5-7.8,4.1-13.3.9-2.9,1.6-5.3,2.4-7.3.7-2,1.5-3.6,2.4-4.8.9-1.3,1.8-2.2,2.9-2.9s2.3-1.1,3.8-1.4c1.7-.3,3.6.3,5.6,1.8,2,1.5,4,3.7,6.2,6.4,2.1,2.8,4.3,6,6.5,9.8,2.2,3.8,4.4,7.7,6.6,11.9,2.2,4.2,4.4,8.4,6.6,12.7,2.2,4.3,4.3,8.4,6.3,12.3.5,1.2.9,2,1.2,2.4.2.4.4,1,.5,1.7.2.9,0,1.9-.4,2.9-.4,1-1,2-1.8,2.9-.8.9-1.8,1.7-2.9,2.3-1.1.7-2.2,1.1-3.4,1.3-1.5.3-2.8.3-3.7.1-.9-.2-1.7-.7-2.4-1.6-.4-.4-1.1-1.7-2.1-3.7-1.1-2-2.3-4.5-3.7-7.3-1.4-2.8-3-5.8-4.7-8.9-1.7-3.1-3.3-6-4.9-8.6-1.6-2.6-3-4.7-4.4-6.4-1.3-1.7-2.4-2.4-3.2-2.3Z"/>
    <path d="M547.4,475.7c2,1.3,3.1,2.7,3.4,4.4.3,1.7-.4,3.5-2,5.4-1.5,1.7-2.7,2.8-3.5,3.4-.8.5-1.6.9-2.4,1-.8.1-1.7.1-2.6,0-.9-.2-1.9-.6-2.8-1.2l-5.7-3.3c-.9-.5-1.9-.7-2.9-.5-.7.1-1.3.4-1.9.9-2.3,1.7-4.7,3.2-7.4,4.4-2.6,1.2-5.5,2.1-8.6,2.7-3,.5-6.2.6-9.4.1-3.3-.5-6.3-1.4-9.1-2.9-2.8-1.5-5.2-3.4-7.3-5.9-2-2.4-3.4-5.4-4-8.8-.6-3.6-.5-6.9.4-9.9.9-3,2.4-5.8,4.3-8.5.4-.5.6-1,.8-1.4.2-.4.2-.8.1-1.3,0-.4-.2-.7-.4-1-.2-.3-.4-.7-.7-1.1-2.6-2.9-4.8-5.8-6.5-8.7-1.7-2.9-2.8-6-3.4-9.1-.7-3.9-.6-7.5.2-10.9.8-3.4,2.3-6.4,4.4-9.1,2.1-2.7,4.7-4.9,7.8-6.7,3.1-1.8,6.5-3.1,10.3-3.7,3.3-.6,6.7-.7,10-.3,3.4.4,6.5,1.2,9.3,2.6,2.8,1.4,5.2,3.3,7.3,5.8,2,2.5,3.4,5.5,4,9.2.6,3.5.6,6.8-.2,9.7-.7,2.9-1.9,5.6-3.6,8.1-1.7,2.5-3.7,4.8-6.2,7-2.4,2.1-5,4.1-7.7,6-.2.3-.3.4-.2.6,0,.3.4.7.9,1.1.5.4,1.2.9,1.9,1.4l7.3,5.2c1.1.8,1.9,1.3,2.4,1.5.5.1.8.2,1,.2.3,0,.6-.3.7-.6.1-.4.2-.8.2-1.3,0-.5,0-1,0-1.5,0-.5-.1-.9-.2-1.2-.1-.6-.3-1.2-.5-1.8-.2-.6-.4-1.3-.6-2.2-.2-.9.2-1.8,1.1-2.5.9-.8,2.3-1.6,4.1-2.4,1.2-.6,2.3-1,3.2-1.2.9-.3,1.6-.4,2-.5,2.5-.4,4,0,4.6,1.6.3.9.6,1.7.9,2.5.3.8.5,1.6.7,2.5.4,2.1.5,4.4.3,6.8s-.7,5.1-1.7,8c-.2.7-.3,1.4-.1,2.1.2.9.8,1.8,1.8,2.5l6.3,3.6ZM491.8,429.5c.7,3.8,2.8,7.6,6.4,11.5.9,1.1,2,1.5,3.1,1.3.5,0,1.1-.4,1.8-.8,1.4-1,2.7-2.1,4.1-3.3,1.4-1.2,2.6-2.5,3.6-3.8,1-1.3,1.8-2.7,2.4-4.1s.7-2.8.4-4.2c-.3-1.5-.8-2.9-1.6-4.1-.8-1.2-1.8-2.1-3-2.8-1.2-.7-2.5-1.2-3.9-1.4-1.4-.2-2.9-.2-4.4,0-1.2.2-2.4.6-3.7,1.1-1.2.5-2.3,1.2-3.2,2.1-.9.9-1.6,2-2,3.4-.4,1.4-.5,3.1-.1,5.1ZM510.5,478.1c1.7-.3,2.8-.7,3.1-1.2.4-.5.5-1,.4-1.7-.2-.9-.7-1.7-1.6-2.4-2.1-1.3-4-2.6-6-3.8-1.9-1.3-3.7-2.5-5.4-3.8-1-.8-2-1.2-2.8-1-.8.1-1.4.7-1.8,1.7,0,.6-.1,1.2-.2,1.7,0,.6,0,1.2.1,1.8.6,3.6,2.3,6.1,5,7.5,2.7,1.4,5.8,1.8,9.2,1.2Z"/>
    <path d="M602.9,454c-.2,0-.4.1-.8.2s-.7.2-1.1.4-.8.3-1.2.4c-.4.1-.7.2-.9.2-1.6.3-3-.1-4.4-1.2-1.4-1.1-2.3-2.7-2.7-4.9-.3-1.4,0-2.9.7-4.4.7-1.5,2-2.9,3.8-4.1.6-.4,1-.8,1.3-1.2.3-.4.4-1,.3-1.6-.3-1.8-.7-3.7-1.1-5.7-.4-2-1-4.3-1.6-7-.2-.5-.4-1-.8-1.5-.4-.4-.8-1-1.3-1.5-.5-.6-.9-1.2-1.3-1.9-.4-.7-.7-1.7-.9-2.8-.2-1.1-.2-2.3-.2-3.7,0-1.4.5-2.8,1.2-4.2.8-1.4,1.9-2.6,3.5-3.7,1.6-1.1,3.8-1.9,6.6-2.4,1.2-.2,2.1-.3,3-.2.8,0,1.5.2,2.2.4.6.2,1.2.4,1.7.5.5.1,1,.2,1.5,0,.9-.2,2.6-.6,5.2-1.4,2.6-.8,5.7-1.8,9.3-3.1,3.6-1.3,7.6-2.7,12-4.3,4.4-1.6,8.8-3.2,13.3-5,4.5-1.7,8.9-3.5,13.1-5.2,4.3-1.7,8.1-3.4,11.5-4.9,1.1-.5,2-.8,2.8-.9,1.2-.2,2.1-.1,2.9.3.8.4,1.4,1,1.9,1.7.5.7.8,1.5,1.1,2.5.3,1,.5,1.8.6,2.7.3,1.4,0,2.9-.7,4.3-.7,1.4-2.2,2.7-4.2,3.8-5.2,2.6-10.5,5-15.8,7.2-5.3,2.2-10.8,4.3-16.2,6.2-5.5,2-11,3.9-16.5,5.7-5.6,1.8-11.1,3.6-16.6,5.4-.8.2-1.3.6-1.6,1.2-.3.5-.4,1.2-.2,2l.6,3.4c.2.9.4,1.9.6,2.9s.5,1.9.9,2.7c.3.8.7,1.4,1.2,1.9.4.5.9.6,1.5.5,1.3-.2,3.3-.9,6-1.9,2.7-1.1,5.7-2.3,9.1-3.7,3.4-1.4,6.9-3,10.6-4.6,3.7-1.7,7.2-3.2,10.4-4.6,3.3-1.4,6.2-2.6,8.7-3.7,2.5-1,4.3-1.6,5.3-1.8,1.5-.3,2.8,0,3.8,1.1,1,1,1.8,2.3,2.4,4,0,.3.1.5.2.7,0,.2.2.5.2.7.3,1.6,0,3.2-.7,4.7-.7,1.5-2.3,2.8-4.6,4-.6.3-1.9.9-3.8,1.7-1.9.8-4.2,1.8-6.8,2.9-2.6,1.1-5.4,2.3-8.4,3.6-3,1.3-6,2.5-8.9,3.8-2.9,1.2-5.6,2.4-8.2,3.5-2.5,1.1-4.6,2-6.2,2.7-1.4.7-2.3,1.1-2.5,1.4-.3.3-.4.6-.3.9.3,1.2,1.2,2.2,2.5,3.1,1.3.8,2.9,1.6,4.8,2.1,1.9.6,4,1,6.3,1.4,2.3.3,4.7.5,7.1.6,2.4,0,4.8,0,7.1-.1,2.3-.1,4.4-.4,6.4-.7.8-.1,2-.4,3.6-.6,1.5-.3,3.2-.6,5.1-1,1.8-.4,3.7-.9,5.7-1.4,1.9-.5,3.7-1.1,5.2-1.7,1.5-.6,2.8-1.2,3.7-1.9.9-.7,1.3-1.3,1.2-2-.1-.6-.4-1.2-1-1.8-.5-.6-.9-1.3-1-2-.2-1.1,0-2.3.3-3.4.4-1.2,1-2.3,1.8-3.3.8-1,1.8-1.9,2.9-2.7,1.2-.7,2.4-1.2,3.6-1.5,1.6-.3,3.1-.2,4.6.2s2.7,1,3.9,1.9c1.2.9,2.1,1.9,2.9,3.1.8,1.2,1.3,2.5,1.5,3.9.7,3.7-.1,7-2.3,10.2-2.2,3.1-5.3,6-9.3,8.5-4,2.5-8.6,4.7-13.9,6.5-5.3,1.8-10.6,3.2-16.1,4.2-6.4,1.1-12.4,1.8-17.8,1.9s-10.5-.4-15-1.6c-4.5-1.1-8.6-2.9-12.2-5.4-3.6-2.5-6.7-5.7-9.4-9.7-.9-1.2-1.7-1.7-2.5-1.5Z"/>
    <path d="M718.4,389.5c-1,.6-2.1,1.1-3.1,1.2-2.7.5-4.8-.8-6.3-3.7-.4-.8-.7-1.4-.9-2-.2-.5-.3-1-.4-1.5-.5-2.6.7-4.8,3.4-6.6,5.4-3.4,11-6.3,16.8-8.8,5.8-2.5,11.7-4.3,17.9-5.4,2.9-.5,5.8-.7,8.7-.6,2.9.1,5.6.7,8.1,1.8,2.5,1.1,4.6,2.8,6.5,5s3.1,5.2,3.8,9c.5,2.7.4,5.3-.3,7.9-.6,2.6-1.7,5.2-3,7.7-1.4,2.5-3,5-4.9,7.4-1.9,2.4-3.9,4.6-6,6.7s-4.2,4-6.2,5.8c-2.1,1.8-4,3.3-5.7,4.7-1.4,1.2-2.1,2.3-1.9,3.3.2,1.2,1.2,1.9,3.1,2.3,6.3,1,12.7,1.9,19.2,2.6,6.5.7,13.2,1.6,19.9,2.8,3.2.6,5,2,5.4,4.3.2,1.1,0,2.3-.4,3.5-.4,1.2-1,2.4-1.6,3.5-1.2,2.7-3,4.2-5.3,4.6-.8.1-1.9.2-3.2,0-3.8-.7-8-1.5-12.3-2.2-4.4-.8-8.9-1.5-13.4-2.2-4.5-.7-9-1.4-13.4-2-4.4-.6-8.5-1.2-12.2-1.6-1.3-.1-2.2-.1-2.7,0-.4,0-.8.2-1,.5-.2.2-.3.7-.2,1.3,0,.2,0,.4.2.6,0,.2.2.5.2.8.3.8.7,1.9,1.2,3.2s1,2.7,1.5,4.1c.5,1.4,1,2.7,1.4,4,.4,1.3.7,2.3.8,3.2.6,3.1-.7,5.6-3.9,7.4l-3.5,1.8c-.5.3-1,.5-1.4.6-.4.2-.9.3-1.4.4-3,.5-5.2-1-6.3-4.7-3.1-9.8-6.6-19.5-10.4-28.9-3.8-9.4-7.9-18.8-12.3-28-.3-.5-.4-1-.6-1.4-.1-.4-.2-.8-.2-1.1-.5-2.9.7-5.2,3.7-6.8,1.1-.6,2-1.1,2.7-1.4.7-.4,1.3-.6,1.7-.9.4-.2.8-.4,1-.5.2,0,.5-.2.7-.2,3-.5,5.2.8,6.7,4,1.9,4.1,3.8,8.1,5.5,11.9,1.7,3.9,3.4,7.7,4.9,11.5.8,1.9,1.8,2.7,2.9,2.5.3,0,.7-.2,1.1-.4.4-.2.9-.5,1.5-.9,1.6-1.3,3.5-2.8,5.8-4.6,2.3-1.8,4.6-3.8,7.1-6,2.4-2.2,4.8-4.4,7.2-6.8,2.3-2.4,4.4-4.7,6.2-6.9,1.8-2.3,3.2-4.4,4.2-6.5s1.4-3.9,1.1-5.5c-.2-1-.5-1.9-.9-2.7-.5-.8-1.1-1.4-2.1-1.9-.9-.5-2.1-.7-3.6-.8-1.5,0-3.3,0-5.4.5-2.1.4-4.3,1-6.5,1.7-2.2.8-4.4,1.7-6.6,2.7-2.2,1-4.3,2.1-6.4,3.3-2.1,1.2-4,2.3-5.9,3.5Z"/>
    <path d="M817.7,446.5c-.3-1.8-.8-4.2-1.5-7.1-.7-2.9-1.4-6.1-2.3-9.6-.9-3.5-1.8-7.2-2.8-11.2-1-3.9-2-7.8-3-11.7-1-3.9-2-7.6-3-11.2-1-3.6-1.8-6.9-2.7-9.8-1.2-4.2-2.4-7.2-3.5-9.1-1.1-1.9-2.6-2.6-4.4-2.3-1.7.3-2.7,1-3,2-.4,1-.5,2.3-.3,3.6.2,1.4.4,2.9.7,4.5.3,1.6.3,3.2,0,4.7-.3,1.5-1.1,2.8-2.3,4-1.3,1.2-3.4,2.1-6.4,2.6-2.1.4-4.1-.2-5.9-1.7-1.8-1.5-3-3.9-3.6-7.2-.8-4.6-.2-9.1,1.8-13.4s5.3-8.2,9.8-11.8c4.5-3.6,10.1-6.7,16.9-9.5,6.8-2.7,14.4-4.9,23-6.4,6.1-1.1,11.9-1.4,17.4-1,5.4.4,10.3,1.5,14.5,3.2,4.2,1.7,7.7,4,10.4,7,2.7,2.9,4.5,6.3,5.2,10.2.8,4.4.3,8.8-1.6,13.2-1.8,4.4-4.7,8.7-8.5,12.8s-8.6,7.9-14.2,11.5c-5.6,3.5-11.7,6.6-18.4,9.2-1.9.7-2.6,2-2.3,4.1.2,1.4.7,3.1,1.2,5.1s1.1,4.2,1.7,6.4c.6,2.2,1.2,4.4,1.8,6.6.6,2.2,1,4.1,1.3,5.8.6,3.1.2,5.4-1,7-1.2,1.6-3.2,2.6-6,3.1-2.7.5-4.8.4-6.5-.3-1.7-.6-2.6-1.9-3-3.6ZM856.2,370.9c-.3-1.9-1.5-3.5-3.4-5-1.9-1.4-4.3-2.6-7.3-3.4-2.9-.8-6.3-1.3-10-1.5-3.7-.1-7.5.1-11.5.8-1.9.3-3.5.7-4.8,1.1-1.3.4-2.3.8-3,1.3-.7.5-1.2,1-1.4,1.6-.2.6-.2,1.3,0,2.1,0,.6.4,1.8.9,3.8.5,2,1.2,4.3,1.9,6.9.8,2.6,1.5,5.3,2.4,8.2.8,2.8,1.6,5.4,2.4,7.7.5,1.7.9,2.8,1.3,3.3.4.5.9.7,1.6.6,1.9-.3,4-1,6.3-2.1,2.3-1.1,4.7-2.4,7.1-3.9,2.4-1.5,4.7-3.2,6.9-5.1,2.2-1.8,4.2-3.7,5.8-5.7,1.7-1.9,3-3.8,3.9-5.7.9-1.8,1.2-3.5.9-5Z"/>
  </g>
</svg>