<?xml version="1.0" encoding="UTF-8"?>
<svg id="Layer_1" xmlns="http://www.w3.org/2000/svg" version="1.1" viewBox="0 0 45 45">
  <!-- Generator: Adobe Illustrator 29.1.0, SVG Export Plug-In . SVG Version: 2.1.0 Build 142)  -->
  <defs>
    <style>
      .st0 {
        fill: #1d1d1b;
      }

      .st1 {
        fill: #adff02;
      }
    </style>
  </defs>
  <rect class="st1" x="-3.3" y="-3.3" width="51.6" height="51.6" rx="6.8" ry="6.8"/>
  <g>
    <path d="M37.3,16.1c0-.4-.1-.7-.2-1-.4-1.4-1.4-2.6-2.7-3.3-.9-.4-1.9-.5-2.9-.5-1.6,0-3.1.4-4.6,1-3,1.4-5.3,4-7.3,6.6s-1.6,2.2-2.4,3.4c-1.4,2.2-2.8,4.3-4.2,6.5,0,.2-.2.3-.2.5,0,.2,0,.4.2.6.3.5.5.9.7,1.3s.6,1.2.9,1.7c.5.9.8,1.6,1.4,2.4.9,1.3,2.5,2.2,4.1,1.9.2,0,.3,0,.4-.2.1-.1.2-.4.2-.6v-6.9c.1-.1.1-.2.2-.3.2-.4.5-.3.8-.2,2.4.5,5,0,7.3-1,3.8-1.6,7.1-4.7,8.1-8.7.3-1.1.4-2.2.2-3.3ZM30.2,23.3c-3.6,3-8.2,3.8-9.4,2.3-1.2-1.5,1.2-5.6,4.8-8.6,3.6-3,7.4-3.3,8.6-1.9,1.2,1.5-.3,5.2-3.9,8.1Z"/>
    <path d="M12.3,28.5c0-.2-.4-1-.5-1.2-.2-.4-.4-.9-.6-1.3-.4-.9-.8-1.7-1.1-2.6-.7-1.8-1.3-3.6-1.8-5.4s-.3-1-.4-1.5c-.3-1.2-.4-2.4,0-3.6.6-2,2.6-3.1,4.6-2.8,0,0,.7.1.7.1,1.8.8,2.1,1.3,2.4,2.1.7,1.8.2,2.6,0,4-.5,3-1.2,5.9-2.1,8.8l-.5,1.8s-.6,1.7-.6,1.7Z"/>
  </g>
  <g>
    <path class="st0" d="M24.5,31.7c0,0,0,.1,0,.2,0,0,0,.1-.1.2,0,0-.1.1-.2.2,0,0-.1.1-.2.2,0,0-.1.1-.1.2,0,0,0,.1,0,.2,0,0,0,.1.1.1,0,0,.2,0,.4,0,.2,0,.3,0,.5,0s.5,0,.7,0c.1,0,.2,0,.2.2,0,0,0,0,0,.1s0,0,0,.1c0,0,0,0,0,0,0,0,0,0-.1,0,0,0-.2,0-.3,0-.1,0-.2,0-.4,0s-.3,0-.4,0c-.1,0-.3,0-.4,0s-.2,0-.3,0-.2,0-.2,0c0,0,0,0,0,0,0,0,0,0,0,.1s0,.1,0,.2c0,0,0,.2,0,.2,0,0,0,.2,0,.2s-.1,0-.2.1c-.1,0-.2,0-.2-.1,0-.1-.1-.3-.2-.4,0-.2-.1-.3-.2-.5,0-.1-.2-.3-.2-.4,0-.1-.2-.3-.2-.4,0,0,0,0,0,0,0,0,0,0,0,0,0,0,0,0,0,0,0,0,0,0,0,0s0,0,0,0,0,0,.1,0c0,0,.1,0,.2,0,0,0,.1,0,.2.1,0,0,0,0,0,.1,0,0,0,0,0,.1,0,0,0,.1,0,.2s0,0,0,.1c0,0,0,0,0,0,0,0,0,0,0,0,0,0,0,0,0,0,0,0,0,0,0,0,0-.2.1-.4.2-.6,0-.2.2-.3.3-.5,0-.1.2-.2.3-.3.1,0,.2-.1.3-.2,0,0,0,0,.1,0,0,0,0,0,.1,0,0,0,0,0,0,0,0,0,0,0,0,.1Z"/>
    <path class="st0" d="M25.2,32c0,0,0-.1,0-.2,0,0,.1,0,.2,0,0,0,.1,0,.2,0,0,0,0,0,0,.1,0,0,0,0,0,0,0,0,0,0,0,0,0,.1,0,.2,0,.4,0,.1,0,.3,0,.4,0,.2,0,.3.1.5,0,.1.1.3.2.4,0,0,.2.2.4.2.1,0,.3,0,.5,0,.1,0,.2,0,.3-.1,0,0,.1-.1.2-.2,0,0,0-.2,0-.3,0-.1,0-.2,0-.3,0-.1,0-.2,0-.3,0-.1,0-.2-.2-.3,0-.1-.1-.2-.2-.3,0,0-.1-.2-.2-.3,0,0,0,0,0-.1,0,0,0-.1,0-.2h0c0-.1,0-.2.1-.2,0,0,.1,0,.2,0,0,.1.2.2.3.3s.2.2.2.4c0,.1.1.2.2.4s0,.3.1.4c0,.2,0,.4,0,.6,0,.2-.1.3-.2.5-.1.1-.2.3-.4.4-.2,0-.4.2-.6.2-.2,0-.4,0-.6,0-.2,0-.4-.1-.5-.3-.1-.1-.3-.3-.4-.5,0-.2-.2-.4-.2-.6,0-.2,0-.3,0-.5,0-.2,0-.3,0-.5Z"/>
    <path class="st0" d="M29.5,33.7c0,0,0,0-.1,0,0,0,0,0-.2,0,0,0-.1,0-.2,0,0,0,0,0,0-.1,0,0,0,0,0-.2,0,0,0-.1,0-.2,0-.2-.1-.5-.2-.7,0-.2-.1-.4-.2-.6,0-.2-.1-.3-.1-.5,0-.1,0-.2,0-.3,0,0,0,0,0,0,0,0,0,0,0,0,0,0,0,0,0,0s0,0,.1,0c0,0,.2,0,.2,0,0,0,0,0,0,.1.1.4.2.7.3,1.1s.2.6.2.9c0,0,0,0,0,0,0,0,0,0,0,0,0,0,.1,0,.2,0,0,0,.1,0,.2,0,0,0,.1,0,.2,0,0,0,.1,0,.2,0,0,0,0,0,.1,0,0,0,0,0,0,0,0,0,0,0,0,0,0,0,0,0,0,0,0,0,0,0,0,.1s0,0,0,.1c0,0,0,0,0,0,0,0,0,0-.1,0-.2,0-.4.1-.6.2-.2,0-.3,0-.4.1Z"/>
    <path class="st0" d="M31.5,33.5c0,0,0-.1,0-.2s0-.2,0-.3c0-.1,0-.2,0-.4,0-.1,0-.3,0-.4,0-.1,0-.2,0-.4,0-.1,0-.2,0-.3,0-.1,0-.2-.1-.3,0,0,0,0-.1,0,0,0,0,0,0,0,0,0,0,0,0,.1,0,0,0,0,0,.1,0,0,0,.1,0,.2,0,0,0,0,0,.1,0,0-.1,0-.2,0,0,0-.1,0-.2,0s0-.1-.1-.2c0-.2,0-.3,0-.4s.2-.3.3-.4c.1-.1.3-.2.6-.3.2,0,.5-.2.8-.2.2,0,.4,0,.6,0,.2,0,.3,0,.5.1.1,0,.3.1.3.2,0,0,.1.2.2.3,0,.1,0,.3,0,.4,0,.1-.2.3-.3.4-.1.1-.3.3-.5.4-.2.1-.4.2-.6.3,0,0,0,0,0,.1,0,0,0,.1,0,.2,0,0,0,.1,0,.2s0,.1,0,.2c0,0,0,.1,0,.2,0,.1,0,.2,0,.2,0,0-.1,0-.2.1,0,0-.2,0-.2,0,0,0,0,0,0-.1ZM32.8,31c0,0,0-.1-.1-.2,0,0-.1,0-.2-.1,0,0-.2,0-.3,0s-.2,0-.4,0c0,0-.1,0-.2,0,0,0,0,0,0,0,0,0,0,0,0,0,0,0,0,0,0,0,0,0,0,0,0,.1s0,.1,0,.2c0,0,0,.2,0,.3,0,0,0,.2,0,.3,0,0,0,0,0,.1,0,0,0,0,0,0,0,0,.1,0,.2,0,0,0,.2,0,.2-.1,0,0,.2-.1.2-.2,0,0,.1-.1.2-.2,0,0,0-.1.1-.2,0,0,0-.1,0-.2Z"/>
    <path class="st0" d="M34.2,31.5c0,.1,0,.2.1.3,0,0,.2.2.3.2,0,0,.2,0,.3.1.1,0,.2,0,.4,0,0,0,0,0,.1,0,0,0,0,0,0,0,0,0,0,0,0,0,0,0,0,0,0-.1,0,0,0-.1-.1-.2,0,0-.2-.1-.3-.2-.1,0-.2-.1-.3-.2-.1,0-.3-.1-.4-.2-.1,0-.3-.1-.4-.2-.1,0-.2-.1-.3-.2-.1,0-.2-.1-.3-.2s-.1-.1-.1-.2c0,0,0-.1,0-.2,0,0,0-.1.1-.2,0,0,.1-.1.2-.2,0,0,.2-.1.2-.1,0,0,.2,0,.3-.1,0,0,.2,0,.3,0,0,0,.1,0,.2,0,0,0,.1,0,.2,0,0,0,.1,0,.2,0,0,0,0,0,0,.1,0,0,0,0,0,0,0,0,0,0,0,.1,0,0,0,.1,0,.1,0,0,0,0-.1,0,0,0-.2,0-.2,0,0,0-.2,0-.3,0,0,0,0,0-.1,0,0,0,0,0-.1,0,0,0,0,0,0,0,0,0,0,0,0,0,0,0,0,0,0,.1s.1,0,.2.1c0,0,.2,0,.3.1.1,0,.2,0,.4.1s.2.1.4.2c.1,0,.2.1.3.2,0,0,.2.2.2.2,0,0,.1.2.1.3,0,.1,0,.3,0,.4,0,.1-.1.2-.2.3,0,0-.2.2-.3.2-.1,0-.2,0-.3.1-.1,0-.2,0-.3,0-.1,0-.2,0-.3,0-.1,0-.2,0-.3-.1-.1,0-.2-.1-.3-.2s-.2-.2-.2-.2c0,0,0-.2-.1-.3,0,0,0,0,0-.1,0,0,0,0,0-.1,0,0,0,0,0,0s0,0,.1,0c0,0,0,0,0,0,0,0,0,0,0,0,0,0,.1,0,.2,0s0,0,0,.1Z"/>
    <path class="st0" d="M24.1,35.5c0,0-.1,0-.1,0s0,0,0,.1c0,0,0,.1,0,.2,0,0,0,.1,0,.2,0,0,0,.1,0,.2,0,0,0,0,.2.1,0,0,.1,0,.2,0,0,0,.2,0,.3,0,0,0,.1,0,.2,0,0,0,.1,0,.1,0,0,0,0,0,0,0,0,0,0,0,0,0,0,0,0,0,0,0,0,0,0,0,0,0,0,0,0,0,0,0,0,0,0,0,0,0,0,0,0,0,0,0,0,0,0,0,0,0,0,0,0,0,0,0,0,0,0,0,0,0,0,0,0,0,0,0,0,0,0,0,0,0,0,0,0,0,0,0,0,0,0,0,0,.1,0,0,0,.2,0,.2,0,0,0,.1-.1.2,0,0-.1.1-.2.2,0,0-.2,0-.3,0-.1,0-.2,0-.4,0s-.2,0-.3,0c0,0-.2-.1-.2-.2,0,0,0-.2-.1-.3,0-.1,0-.2,0-.3,0-.1,0-.2.1-.3,0,0,.1-.2.2-.2,0,0,.2,0,.3-.1,0,0,0,0,.1,0,0,0,0,0,.1,0,0,0,0,0,0,0,0,0,0,0,0,0,0,0,0,0,0,0,0,0,0,0,0,0,0,0,0,0,0,0,0,0,0,0,0,0,0,0,0,0,0,0,0,0,0,0,0,0s0,0,0,0c0,0,0,0,0,0Z"/>
    <path class="st0" d="M25.5,35.4s0,0,0,0c0,0,0,0-.1,0,0,0,0,0,0,0,0,0,0,0,0,0,0,0,0,0,0-.1,0,0,.2-.1.3-.2,0,0,.2,0,.3,0,0,0,0,0,.1,0,0,0,0,0,.1,0,0,0,0,0,.1,0,0,0,0,0,0,.2,0,0,0,0,0,.1s0,0,0,.1,0,0,0,.1c0,0,0,0-.1.1,0,0,0,0-.1,0,0,0,0,0,0,0,0,0,0,0,0,0,0,0,0,0,0,0,.1,0,.2,0,.3,0,.1,0,.2,0,.3,0,0,0,0,0,0,0,0,0,0,0,0,0,0,0,0,0,0,0,0,0,0,0,0,0,0,0,0,0,0,0,0,0-.1,0-.2,0,0,0-.2,0-.2,0,0,0-.2,0-.2,0,0,0-.1,0-.2,0,0,0,0,0,0,0,0,0,0,0,0,0,0,0,0,0,0,0,0,0,0,0,0,0,0,0,0,0,0,0,0,0,0,0,0,0,0,0,0,0,0,0,0,0,0,0,0,0,0,0,0,0,0,0,0,0,0,0,0,.1h0s0,0,0,0c0,0,0,0,0,0,0,0,0,0-.1,0,0-.2-.1-.3-.2-.5,0-.2-.1-.3-.2-.5,0,0,0,0,0,0,0,0,0,0,0,0,0,0,0,0,0-.1,0,0,0,0,0,0,0,0,0,0,0,0,0,0,0,0,0,0,0,0,0,0,0,0,0,0,0,0,.1,0,0,0,0,.1,0,.2,0,0,0,.1,0,.2,0,0,0,0,0,0,0,0,0,0,0,0s0,0,0,0c0,0,0,0,.1,0s0,0,.1-.1c0,0,0,0,.1-.1,0,0,0,0,.1-.1,0,0,0,0,0-.1s0,0,0,0c0,0,0,0,0,0,0,0,0,0,0,0,0,0,0,0,0,0,0,0,0,0,0,0,0,0,0,0-.1,0,0,0,0,0-.1,0,0,0,0,0-.1,0,0,0,0,0-.1,0Z"/>
    <path class="st0" d="M28.1,35.3s0,0,0,0c0,0,0,.1,0,.2,0,0,0,.1,0,.2,0,0,0,0-.1.1,0,0,0,0-.1,0,0,0,0,0,0,0,0,0,0,0-.1,0,0,0,0,0-.1-.1s-.1-.1-.2-.3c0,0,0,0,0,0,0,0,0,0,0,0,0,0,0,0,0,0,0,0,0,0,0,.1,0,0,0,.1,0,.2s0,.1,0,.2c0,0,0,0,0,.1,0,0,0,0,0,.1,0,0,0,0,0,0,0,0,0,0,0,0,0,0,0,0,0,0,0,0,0,0,0,0,0,0,0,0-.1,0,0,0,0-.1,0-.3,0-.2,0-.3,0-.4,0-.1,0-.2,0-.3,0,0,0-.2,0-.2,0,0,0,0,.1-.1,0,0,.1,0,.2,0s.1.1.2.2c0,0,0,0,0,.1,0,0,0,0,0,.1,0,0,0,0,0,0,0,0,0,0,0,0,0,0,0,0,0,0,0,0,0,0,0,0,0,0,0,0,0-.1,0,0,0-.1,0-.2,0,0,0,0,0-.1,0,0,0,0,0,0,0,0,0,0,0,0,0,0,0,0,0,0,0,0,0,0,0,0,0,0,0,0,.1.1,0,0,0,.1.1.2s0,.1.1.2c0,0,0,.1.1.2,0,0,0,.1.1.2,0,0,0,0,0,0,0,0,0,0,0,0,0,0,0,0,0,0,0,0,0,0,0,0s0,0,0,0c0,0,0,0,0,0s0,0,0,0c0,0,0,0,0,0s0,0,0,0c0,0,0,0,0-.1,0,0,0,0,0-.2,0,0,0-.1,0-.1,0,0,0,0,0-.1,0,0,0,0,0,0Z"/>
    <path class="st0" d="M30.7,35.5s0,0,0,0c0,0,0,0,0,0,0,0,0,0,0,0s0,0,0,0c0,0,0,0,0,0,0,0,0,0,0,0h0c0,0,0,0,0,0,0,0,0,0,0,0,0,0,0,0-.1,0,0,0,0,0-.1,0,0,0-.1,0-.2,0,0,0-.1,0-.2,0,0,0,0,0-.1-.1,0,0,0,0,0-.2,0,0,0-.1,0-.2,0,0,0-.1,0-.1,0,0,0,0,0,0,0,0,0,0,0,0,0,0,0,0,0,0s0,0,0,0c0,0,0,0-.1-.2,0,0,0-.1,0-.2,0,0,0-.1,0-.2,0,0,0-.1,0-.2,0,0,0,0,.1-.1,0,0,.1,0,.2,0,0,0,.1,0,.2,0,0,0,.1,0,.2,0,0,0,0,0,.1,0,0,0,0,0,0,.2,0,0,0,.1,0,.2,0,0,0,0,0,.1,0,0,0,0-.1.1,0,0,0,0-.1.1,0,0,0,0,0,0,0,0,0,0,0,0,0,0,0,0,0,0h.1c0,.1,0,.1,0,.1s0,0,0,0c0,0,0,0,0,0,0,0,0,0,0,0s0,0,0,0c0,0,0,0,0,0,0,0,0,0,0,0,0,0,0,0,0,0,0,0,0,0,0,0,0,0,0,0,0,0,0,0,0,0,0,0,0,0,0,0,0,0,0,0,0,0,0,0,0,0,0,0,0,0,0,0,0,0,0,0,0,0,0,0,0,.1s0,0,0,.1c0,0,0,0,0,0,0,0,0,0,0,0h.1ZM29.7,34.7c0,0,0,.1.1.2,0,0,0,0,0,0,0,0,0,0,0,0,0,0,0,0,0,0,0,0,0,0,0,0,0,0,0,0,0,0,0,0,0,0,0,0,0,0,0,0,0,0,0,0,0,0,0,0,0,0,0,0,0,0,0,0,0,0,0,0,0,0,0,0,0,0,0,0,0,0,0,0,0,0,0,0,0,0,0,0,0,0,0,0ZM30,35.5s0,0,0,0c0,0,0,0,0,0,0,0,0,0,0,0,0,0,0,0-.1,0,0,0,0,0,0,0,0,0,0,0,0,0,0,0,0,0,0,0,0,0,0,0,0,0,0,0,0,0,0,0,0,0,0,.1,0,.1,0,0,0,0,.2,0Z"/>
    <path class="st0" d="M31.6,35.1s0,0,0,0c0,0,0,0,0,0,0,0,0,0,0,0,0,0,0,0,0,0,0,0,0,0,0,0,0,0,0,0,0,0,0,0,0,0,0,0,0,0,0,0,0,0,0,0,0,0,0,0,0,0,0,0,0,0,0,0,0,0,0,0,0,0,0,0,0-.1,0,0,0,0,0,0,0,0,0,0,0,0,0,0,0,0,0,0,0,0,0,0,0,0,0,0,0,0,0,0,0,0,0,0,0,0,0,0,0,0,0,0,0,0,0,0,.1,0,0,0,0,0,0,0,0,0,0,0,0,0,0,0,0,0,0,0,0,0,0,0,0,0,0,0,0,0,0,0,0,0,0,0,.2,0,0,0,.1,0,.2,0,0,0,.2,0,.2,0,0,0,.2,0,.2,0s.1,0,.2,0c0,0,0,0,0,0,0,0,0,0,0,0,0,0,0,0,0,0,0,0,0,0,0,0,0,0,0,0,0,0,0,0,0,0,0,0,0,0,0,0,0,0,0,0-.2,0-.3.1,0,0-.2,0-.3.1,0,0-.2,0-.3,0,0,0-.2,0-.3,0,0,0,0,0,0,0,0,0,0,0,0,0h0c0,0,0,0,0,.1,0,0,0,0,0,0,0,0,0,0,0,0,0,0,0,0,0,0,0,0,0,0,.1,0,0,0,0,0,.2,0,0,0,.1,0,.2,0s.1,0,.2,0,.1,0,.1,0c0,0,0,0,0,0,0,0,0,0,0,0,0,0,0,0,0,0,0,0,0,0,0,0,0,0,0,0,0,0,0,0,0,0,0,0,0,0,0,0,0,0,0,0,0,0,0,0s0,0-.1,0,0,0-.1,0c0,0-.1,0-.2,0,0,0,0,0-.1,0,0,0,0,0-.1,0,0,0,0,0,0,0,0,0,0,0,0,0,0,0,0,0,0,0s0,0,0,0c0,0,0,0,.1,0s0,0,.1,0c0,0,0,0,.1,0,0,0,0,0,.1,0s0,0,0,0,0,0,0,0,0,0,0,0c0,0,0,0,0,0,0,0,0,0,0,0,0,0,0,0,0,0,0,0,0,0,0,0,0,0,0,0,0,0,0,0,0,0,0,0s0,0,0,0c0,0,0,0,0,0s0,0,0,0c0,0,0,0,0,0,0,0,0,0,0,0,0,0,0,0,0,0,0,0,0,0,0,0,0,0,0,.1,0,.2,0,0,0,.1-.2.1,0,0-.1,0-.2.1s-.2,0-.3,0c-.1,0-.2,0-.3,0,0,0-.2,0-.3,0,0,0-.1,0-.2,0,0,0-.1,0-.2-.2,0,0,0,0,0,0Z"/>
    <path class="st0" d="M33.6,34s0,0,0,0c0,0,0,0-.1,0,0,0,0,0,0,0,0,0,0,0,0,0,0,0,0,0,0-.1,0,0,.2-.1.3-.2,0,0,.2,0,.3,0,0,0,0,0,.1,0,0,0,0,0,.1,0,0,0,0,0,.1,0,0,0,0,0,0,.2,0,0,0,0,0,.1s0,0,0,.1c0,0,0,0,0,.1,0,0,0,0-.1.1,0,0,0,0-.1,0,0,0,0,0,0,0,0,0,0,0,0,0,0,0,0,0,0,0,.1,0,.2,0,.3,0,.1,0,.2,0,.3,0,0,0,0,0,0,0,0,0,0,0,0,0,0,0,0,0,0,0,0,0,0,0,0,0,0,0,0,0,0,0,0,0-.1,0-.2,0s-.2,0-.2,0c0,0-.2,0-.2,0,0,0-.1,0-.2,0,0,0,0,0,0,0,0,0,0,0,0,0,0,0,0,0,0,0,0,0,0,0,0,0s0,0,0,0c0,0,0,0,0,0,0,0,0,0,0,0,0,0,0,0,0,0,0,0,0,0,0,0,0,0,0,0,0,.1h0s0,0,0,0c0,0,0,0,0,0,0,0,0,0-.1,0,0-.2-.1-.3-.2-.5,0-.2-.1-.3-.2-.5,0,0,0,0,0,0s0,0,0,0c0,0,0,0,0-.1,0,0,0,0,0,0,0,0,0,0,0,0,0,0,0,0,0,0s0,0,0,0c0,0,0,0,.1,0,0,0,0,.1,0,.2,0,0,0,.1,0,.2,0,0,0,0,0,0,0,0,0,0,0,0,0,0,0,0,0,0,0,0,0,0,0,0s0,0,.1-.1c0,0,0,0,.1-.1,0,0,0,0,.1-.1,0,0,0,0,0-.1s0,0,0,0c0,0,0,0,0,0,0,0,0,0,0,0,0,0,0,0,0,0,0,0,0,0,0,0,0,0,0,0-.1,0,0,0,0,0-.1,0,0,0,0,0-.1,0,0,0,0,0-.1,0Z"/>
    <path class="st0" d="M35.3,35s0,0,0-.1c0,0,0-.1,0-.2,0,0,0-.1,0-.2,0,0,0-.1,0-.2s0-.1,0-.2,0-.1,0-.2c0,0,0-.1,0-.2,0,0,0,0,0,0,0,0,0,0,0,0,0,0,0,0,0,0,0,0,0,0,0,0,0,0,0,0,0,0,0,0,0,0,0,0,0,0,0,0-.1,0,0,0,0,0-.1,0,0,0,0,0,0-.1,0,0,0-.2,0-.2,0,0,0-.1.2-.2,0,0,.2-.1.3-.2.1,0,.2,0,.4-.1.1,0,.2,0,.3,0,0,0,.2,0,.2,0,0,0,.1,0,.2.1,0,0,0,.1,0,.2,0,0,0,.2,0,.2,0,0,0,.2-.1.2,0,0-.1.1-.2.2,0,0-.2.1-.3.2,0,0,0,0,0,0,0,0,0,0,0,0,0,0,0,0,0,.1,0,0,0,0,0,.1,0,0,0,0,0,.1,0,0,0,0,0,.1,0,0,0,0-.1,0,0,0,0,0-.1,0,0,0,0,0,0,0ZM36,33.7s0,0,0,0c0,0,0,0-.1,0,0,0-.1,0-.2,0,0,0-.1,0-.2,0,0,0,0,0,0,0,0,0,0,0,0,0,0,0,0,0,0,0,0,0,0,0,0,0,0,0,0,0,0,0s0,0,0,.1c0,0,0,0,0,.1,0,0,0,0,0,.1,0,0,0,0,0,0,0,0,0,0,0,0,0,0,0,0,.1,0,0,0,0,0,.1,0,0,0,0,0,.1,0,0,0,0,0,.1,0,0,0,0,0,0,0,0,0,0,0,0,0Z"/>
  </g>
</svg>