<?xml version="1.0" encoding="UTF-8"?>
<svg id="Layer_1" xmlns="http://www.w3.org/2000/svg" version="1.1" viewBox="0 0 200 200">
  <!-- Generator: Adobe Illustrator 29.1.0, SVG Export Plug-In . SVG Version: 2.1.0 Build 142)  -->
  <defs>
    <style>
      .st0 {
        fill: #1d1d1b;
        font-family: GochiHand-Regular, 'Gochi Hand';
      }

      .st1 {
        font-size: 17px;
      }

      .st2 {
        font-size: 32.4px;
      }

      .st3 {
        fill: #adff02;
      }
    </style>
  </defs>
  <rect class="st3" x="5.1" y="5.1" width="189.8" height="189.8" rx="33.2" ry="33.2"/>
  <g>
    <path d="M184.5,61.8c-.3-2-.8-4-1.4-5.9-2.6-7.9-8.1-15.1-15.7-18.6-5.1-2.4-10.8-3.1-16.5-3-9,.1-18,2.1-26.2,5.9-13.6,6.3-24.6,17.1-34.2,28.6-10.5,12.7-19.7,26.5-28.7,40.4-5.5,8.5-10.9,17-16.2,25.5-.5.9-1.1,1.8-1.2,2.8-.1,1.2.5,2.4,1.1,3.5,1.6,3.1,2.8,5.3,4,7.4s3.4,6.9,4.9,9.7c2.7,5.1,4.7,9.1,7.9,13.9,5.2,7.7,14.3,12.4,23.7,11.1.9-.1,1.9-.3,2.6-1,.8-.8.9-2.1.9-3.3l.6-39.5c0-.6.1-1.3.4-1.8,1-2.1,3.1-1.7,4.8-1.3,14,3,28.6-.2,41.7-5.9,21.5-9.4,40.6-26.9,46.2-49.6,1.5-6.1,2-12.6,1.1-18.8ZM144.3,103.2c-20.5,17-47,21.6-54,13.1-7-8.5,6.8-32.1,27.3-49.1,20.5-17,42.1-19.1,49.1-10.6,7,8.5-1.9,29.6-22.4,46.6Z"/>
    <path d="M41.9,132.9c.4-1-2.5-5.7-3-6.9-1.1-2.5-2.2-5-3.3-7.5-2.2-5-4.3-10-6.4-15-4.1-10.1-7.7-20.3-10.2-30.9-.7-3-1.5-5.9-2.2-8.9-1.7-6.7-2.5-14-.5-20.8,3.3-11.4,15.1-17.6,26.1-16.1,0,0,3.9.7,4,.7,10.5,4.6,11.8,7.3,13.7,12,4.1,10.4,1.4,15,.2,22.8-2.7,17.2-7.1,33.7-11.8,50.4l-2.9,10.2s-3.5,9.9-3.5,9.9Z"/>
  </g>
  <text class="st0" transform="translate(98.6 169) rotate(-10.1)"><tspan class="st2"><tspan x="0" y="0">KULPS</tspan></tspan><tspan class="st1"><tspan x="1.3" y="13.2" xml:space="preserve"> CRM &amp; ERP</tspan></tspan></text>
</svg>