<?xml version="1.0" encoding="UTF-8"?>
<svg id="Layer_1" xmlns="http://www.w3.org/2000/svg" version="1.1" viewBox="0 0 200 200">
  <!-- Generator: Adobe Illustrator 29.1.0, SVG Export Plug-In . SVG Version: 2.1.0 Build 142)  -->
  <defs>
    <style>
      .st0 {
        fill: #1d1d1b;
      }

      .st1 {
        fill: #adff02;
      }
    </style>
  </defs>
  <rect class="st1" x="10.3" y="10.3" width="179.5" height="179.5" rx="33.2" ry="33.2"/>
  <g>
    <path d="M179.9,63.9c-.3-1.9-.7-3.8-1.3-5.6-2.4-7.5-7.7-14.3-14.8-17.6-4.8-2.3-10.2-2.9-15.6-2.9-8.5.1-17,2-24.7,5.6-12.9,5.9-23.3,16.2-32.4,27.1-10,12-18.6,25.1-27.1,38.2-5.2,8-10.3,16-15.4,24.1-.5.8-1,1.7-1.1,2.6,0,1.2.5,2.3,1,3.3,1.5,2.9,2.7,5,3.8,7s3.2,6.5,4.7,9.2c2.6,4.8,4.4,8.6,7.5,13.1,4.9,7.3,13.5,11.7,22.4,10.5.9-.1,1.8-.3,2.4-.9.8-.8.8-2,.9-3.1l.6-37.3c0-.6.1-1.2.4-1.7,1-1.9,2.9-1.6,4.6-1.2,13.2,2.8,27.1-.2,39.4-5.6,20.3-8.9,38.4-25.4,43.7-46.9,1.4-5.8,1.9-11.9,1-17.8ZM141.9,103c-19.4,16-44.4,20.4-51.1,12.4-6.6-8,6.4-30.4,25.9-46.4,19.4-16,39.8-18,46.4-10,6.6,8-1.8,28-21.2,44Z"/>
    <path d="M45,131.1c.4-.9-2.4-5.4-2.9-6.5-1-2.4-2.1-4.7-3.1-7.1-2.1-4.7-4.1-9.4-6-14.2-3.9-9.5-7.3-19.2-9.6-29.3-.7-2.8-1.4-5.6-2.1-8.4-1.6-6.4-2.4-13.2-.5-19.6,3.1-10.8,14.3-16.7,24.7-15.2,0,0,3.7.7,3.7.7,9.9,4.4,11.2,6.9,12.9,11.4,3.8,9.8,1.3,14.2.2,21.5-2.6,16.2-6.7,31.9-11.2,47.7l-2.7,9.6s-3.3,9.3-3.3,9.3Z"/>
  </g>
  <g>
    <path class="st0" d="M110.6,148.8c0,.4,0,.8-.2,1.1-.2.4-.4.8-.8,1.1-.3.4-.7.8-1.1,1.1-.4.4-.7.7-1.1,1.1-.3.4-.6.7-.8,1.1-.2.4-.3.7-.2,1.1,0,.3.3.5.8.7.5.2,1.1.4,1.9.5.8.1,1.8.3,3,.3s2.4.2,3.9.3c.7,0,1.1.4,1.2.9,0,.2,0,.4,0,.6s-.2.4-.3.6c-.1.2-.3.3-.5.4-.2.1-.4.2-.6.2-.5,0-1.1.1-1.7,0-.6,0-1.3-.1-2-.2s-1.4-.2-2.1-.4c-.7-.1-1.4-.3-2-.4s-1.2-.2-1.6-.3-.8,0-1,0c-.2,0-.3.1-.5.3-.1.2-.2.4-.3.7s-.1.7-.2,1.1c0,.4,0,.8,0,1.3,0,.5,0,.9-.3,1.3s-.7.5-1.3.6c-.6.1-1-.1-1.1-.6-.3-.8-.6-1.6-1-2.4-.4-.8-.7-1.6-1.2-2.4-.4-.8-.8-1.6-1.3-2.4-.4-.8-.9-1.5-1.3-2.2-.1-.2-.2-.3-.3-.4,0-.1-.1-.3-.1-.4,0-.1,0-.3,0-.4,0-.1.1-.2.3-.4s.3-.2.4-.3.4-.1.6-.2c.4,0,.7,0,1,0,.3.1.6.3.9.6.1.1.3.3.5.6.2.2.3.5.5.8.2.3.3.6.5.8s.3.5.4.8c.1.2.3.4.4.5.1.1.2.2.3.2,0,0,.1,0,.2-.1,0,0,0-.2.1-.3.3-1.2.7-2.2,1.2-3.2.5-1,.9-1.8,1.5-2.6.5-.7,1.1-1.3,1.7-1.8.6-.5,1.2-.7,1.8-.8.2,0,.5,0,.7,0,.2,0,.4.1.6.3.2.1.3.3.5.5.1.2.2.4.2.6Z"/>
    <path class="st0" d="M114.5,150c0-.4.1-.6.4-.9.2-.2.7-.4,1.3-.5.3,0,.6,0,.8.1.2.1.4.4.4.7,0,0,0,0,0,.1,0,0,0,0,0,.1,0,.7,0,1.3,0,2,0,.7.1,1.4.3,2.1.2.9.4,1.8.7,2.5.3.8.7,1.4,1.2,2,.5.5,1.2.9,2,1.1.8.2,1.7.2,2.9,0,.6-.1,1.2-.3,1.6-.6.4-.3.8-.7,1-1.1.2-.5.4-1,.5-1.5,0-.6,0-1.2,0-1.8-.1-.6-.3-1.2-.5-1.8-.2-.6-.5-1.2-.9-1.7-.3-.6-.7-1.1-1.1-1.6-.4-.5-.8-1.1-1.2-1.6-.2-.2-.3-.5-.3-.7,0-.4,0-.7.4-1.1l.5-.5c.2-.2.5-.4.7-.4.4,0,.7.1,1,.5.5.6,1,1.2,1.4,1.8s.9,1.2,1.3,1.9c.4.7.7,1.4,1,2.1s.5,1.5.6,2.3c.2,1.1.2,2.2,0,3.1-.2,1-.6,1.9-1.1,2.6-.6.8-1.3,1.4-2.2,2-.9.5-1.9.9-3.1,1.1-1.3.2-2.4.2-3.5,0-1.1-.3-2-.7-2.8-1.4-.8-.7-1.5-1.5-2-2.5-.5-1-.9-2.1-1.1-3.3-.2-.9-.3-1.7-.3-2.6,0-.9,0-1.7,0-2.5Z"/>
    <path class="st0" d="M137.9,159.3c-.3,0-.5.2-.7.3-.2.1-.5.2-.8.2-.4,0-.7,0-.9-.2-.2-.2-.4-.4-.4-.6,0-.2,0-.5,0-.8,0-.3,0-.7,0-1-.3-1.3-.6-2.5-.9-3.7-.3-1.2-.6-2.3-.9-3.3-.3-1-.5-1.9-.8-2.6-.2-.7-.3-1.2-.4-1.5,0-.2,0-.3,0-.5,0-.2.2-.3.3-.5.1-.1.3-.3.5-.4s.4-.2.7-.2c.5,0,.8,0,1.1,0,.2.1.4.3.5.6.7,2.1,1.2,4,1.6,5.7s.8,3.4,1.1,4.9c0,.2.1.4.3.5.1,0,.3.1.5,0,.4,0,.8-.2,1.2-.3.4-.1.8-.2,1.2-.4.4-.1.8-.2,1.2-.4.4-.1.8-.2,1.1-.3.2,0,.4,0,.6,0,.2,0,.3,0,.4.2.1,0,.2.2.2.3,0,.1,0,.2.1.4,0,.2,0,.4,0,.6s0,.4-.1.5c0,.2-.2.3-.3.5-.1.1-.3.2-.6.3-1.2.3-2.3.6-3.3.9-1,.2-1.8.5-2.4.7Z"/>
    <path class="st0" d="M148.9,158c0-.3-.1-.7-.3-1.3s-.3-1.1-.4-1.7c-.2-.6-.3-1.3-.5-2-.2-.7-.4-1.4-.5-2.1-.2-.7-.4-1.4-.5-2-.2-.6-.3-1.2-.5-1.7-.2-.7-.4-1.3-.6-1.6-.2-.3-.5-.5-.8-.4-.3,0-.5.2-.5.4,0,.2,0,.4,0,.6,0,.2,0,.5.1.8,0,.3,0,.6,0,.8,0,.3-.2.5-.4.7-.2.2-.6.4-1.1.5-.4,0-.7,0-1-.3s-.5-.7-.6-1.3c-.1-.8,0-1.6.3-2.4s.9-1.5,1.7-2.1c.8-.6,1.8-1.2,3-1.7,1.2-.5,2.6-.9,4.1-1.1,1.1-.2,2.1-.3,3.1-.2,1,0,1.8.3,2.6.6.7.3,1.4.7,1.9,1.2.5.5.8,1.1.9,1.8.1.8,0,1.6-.3,2.3-.3.8-.8,1.5-1.5,2.3-.7.7-1.5,1.4-2.5,2-1,.6-2.1,1.2-3.3,1.6-.3.1-.5.4-.4.7,0,.2.1.5.2.9,0,.4.2.7.3,1.1s.2.8.3,1.2c.1.4.2.7.2,1,0,.5,0,1-.2,1.2-.2.3-.6.5-1.1.6-.5,0-.9,0-1.1,0-.3-.1-.5-.3-.5-.6ZM155.7,144.6c0-.3-.3-.6-.6-.9-.3-.3-.8-.5-1.3-.6-.5-.1-1.1-.2-1.8-.3s-1.3,0-2,.1c-.3,0-.6.1-.9.2-.2,0-.4.1-.5.2-.1,0-.2.2-.2.3,0,.1,0,.2,0,.4,0,0,0,.3.2.7s.2.8.3,1.2c.1.5.3.9.4,1.5.1.5.3,1,.4,1.4,0,.3.2.5.2.6,0,0,.2.1.3.1.3,0,.7-.2,1.1-.4.4-.2.8-.4,1.2-.7.4-.3.8-.6,1.2-.9.4-.3.7-.7,1-1,.3-.3.5-.7.7-1,.2-.3.2-.6.2-.9Z"/>
    <path class="st0" d="M163.4,147.5c.1.6.3,1.1.7,1.6.4.5.8.8,1.4,1.1.5.3,1.1.5,1.8.6.6.1,1.3,0,1.9,0,.2,0,.4,0,.6-.2.2,0,.4-.2.5-.3.2-.1.3-.3.3-.4,0-.2.1-.3,0-.6,0-.4-.3-.8-.7-1.1-.4-.3-.8-.7-1.4-1-.5-.3-1.2-.6-1.8-.9-.7-.3-1.4-.6-2.1-.9-.7-.3-1.4-.6-2.1-.9-.7-.3-1.3-.6-1.8-.9-.5-.3-1-.6-1.4-1s-.6-.7-.7-1.2c0-.4,0-.8.1-1.1.1-.4.4-.7.6-1.1.3-.3.6-.6,1-.9.4-.3.8-.6,1.3-.8.5-.2.9-.4,1.4-.6.5-.2.9-.3,1.4-.4.3,0,.7-.1,1.1-.2.4,0,.8,0,1.1,0,.4,0,.7,0,.9.2.3.1.4.3.5.6,0,0,0,.2,0,.3,0,.1,0,.4-.1.7,0,.3-.2.6-.4.7-.2.2-.4.3-.7.3-.4,0-.8.1-1.3,0-.5,0-.9,0-1.4,0-.2,0-.5.1-.7.2-.2,0-.5.2-.7.3-.2.1-.3.2-.5.4-.1.1-.1.3-.1.5,0,.2.2.4.5.6s.7.4,1.2.6c.5.2,1.1.4,1.7.7.6.2,1.3.5,1.9.8s1.3.6,2,.9c.6.3,1.2.7,1.8,1.1.5.4,1,.9,1.3,1.3.4.5.6,1,.7,1.6.1.7,0,1.4-.2,2-.2.6-.6,1.1-1,1.6-.4.5-1,.8-1.5,1.1-.6.3-1.2.5-1.8.6-.6.1-1.2.1-1.9.1-.6,0-1.3-.1-1.9-.3-.6-.2-1.2-.4-1.8-.7-.6-.3-1.1-.6-1.5-1s-.8-.8-1.1-1.3c-.3-.5-.5-1-.6-1.6,0-.2,0-.5,0-.8,0-.3,0-.5,0-.7,0-.2.1-.4.3-.5s.3-.2.6-.3c0,0,.2,0,.3,0,.1,0,.3,0,.5,0,.3,0,.6.1.8.3s.4.4.5.7Z"/>
    <path class="st0" d="M108.5,169.2c-.3,0-.5.2-.8.3s-.4.4-.5.7c-.1.3-.2.6-.3.9,0,.3,0,.7,0,1.1,0,.4.2.7.4,1,.2.3.5.5.9.7.3.2.7.3,1.2.4.4,0,.9,0,1.4,0,.4,0,.7-.2,1-.3.3-.1.6-.3.8-.4.2-.2.4-.3.5-.5.1-.2.2-.3.1-.5,0-.1,0-.2-.1-.3,0,0-.1-.1-.2-.2,0,0-.1-.1-.2-.2,0,0,0-.1-.1-.3,0-.1,0-.2,0-.3,0-.1,0-.2.2-.3,0,0,.2-.2.3-.2.1,0,.2-.1.3-.1.1,0,.3,0,.4,0,.1,0,.3.1.4.3.1.1.2.3.3.4,0,.2.1.4.2.6,0,.4,0,.8-.1,1.2-.2.4-.4.8-.8,1.1-.3.3-.8.6-1.3.9-.5.2-1.1.4-1.7.5-.7.1-1.4.1-2,0s-1.2-.3-1.7-.5c-.5-.3-.9-.6-1.2-1-.3-.4-.5-.9-.6-1.4-.1-.6-.1-1.2,0-1.7.1-.6.3-1.1.6-1.5.3-.5.7-.9,1.1-1.2.4-.3.9-.5,1.5-.6.2,0,.5,0,.7,0,.2,0,.4,0,.6.1.2,0,.3.2.4.3.1.1.2.3.2.4,0,.1,0,.2,0,.4,0,.1,0,.2-.2.3,0,0-.2.2-.3.3-.1,0-.2.1-.4.1-.1,0-.2,0-.3,0,0,0-.2-.1-.3-.2s-.2-.1-.3-.2c0,0-.2,0-.3,0Z"/>
    <path class="st0" d="M116.2,168.8c0,0-.2,0-.3.1-.2,0-.4,0-.6-.3,0,0,0-.1,0-.2,0,0,0,0,0-.1,0-.2,0-.4.3-.6.5-.3,1-.6,1.6-.8.5-.2,1.1-.4,1.7-.5.3,0,.5,0,.8,0,.3,0,.5,0,.8.2.2.1.4.3.6.5.2.2.3.5.3.8,0,.2,0,.5,0,.7s-.2.5-.3.7-.3.5-.5.7c-.2.2-.4.4-.6.6-.2.2-.4.4-.6.5-.2.2-.4.3-.5.4-.1.1-.2.2-.2.3,0,.1.1.2.3.2.6,0,1.2.2,1.8.2.6,0,1.2.2,1.9.3.3,0,.5.2.5.4,0,.1,0,.2,0,.3,0,.1,0,.2-.1.3-.1.2-.3.4-.5.4,0,0-.2,0-.3,0-.4,0-.7-.1-1.1-.2-.4,0-.8-.1-1.2-.2-.4,0-.8-.1-1.2-.2-.4,0-.8-.1-1.1-.2-.1,0-.2,0-.2,0,0,0,0,0,0,0,0,0,0,0,0,.1,0,0,0,0,0,0,0,0,0,0,0,0,0,0,0,.2.1.3,0,.1,0,.2.1.4,0,.1,0,.3.1.4,0,.1,0,.2,0,.3,0,.3,0,.5-.4.7l-.3.2s0,0-.1,0c0,0,0,0-.1,0-.3,0-.5,0-.6-.4-.3-.9-.6-1.8-1-2.7-.4-.9-.7-1.7-1.1-2.6,0,0,0,0,0-.1,0,0,0,0,0-.1,0-.3,0-.5.3-.6.1,0,.2,0,.3-.1,0,0,.1,0,.2,0,0,0,0,0,0,0,0,0,0,0,0,0,.3,0,.5,0,.6.4.2.4.4.8.5,1.1.2.4.3.7.5,1.1,0,.2.2.2.3.2,0,0,0,0,.1,0s0,0,.1,0c.1-.1.3-.3.5-.4s.4-.4.7-.6c.2-.2.4-.4.7-.6.2-.2.4-.4.6-.6.2-.2.3-.4.4-.6s.1-.4,0-.5c0,0,0-.2,0-.2,0,0-.1-.1-.2-.2,0,0-.2,0-.3,0-.1,0-.3,0-.5,0-.2,0-.4,0-.6.2-.2,0-.4.2-.6.2-.2,0-.4.2-.6.3-.2.1-.4.2-.5.3Z"/>
    <path class="st0" d="M130,168c0,0-.1,0-.1.2-.1.4-.3.8-.4,1.1-.2.3-.3.7-.5.9-.2.3-.4.5-.6.6-.2.2-.4.2-.6.3-.2,0-.4,0-.5,0-.2,0-.4-.2-.6-.4-.2-.2-.5-.5-.8-.8s-.7-.8-1.1-1.4c0,0-.1-.2-.2-.2,0,0-.1,0-.2,0,0,0-.1,0-.1.2,0,.2,0,.4,0,.6,0,.3,0,.6,0,.9s0,.8.2,1.2c0,.3.1.5.2.8,0,.3.1.5.2.8,0,0,0,.2,0,.3,0,0,0,.2-.2.2,0,0-.2.1-.3.2-.1,0-.2,0-.4.1-.3,0-.5,0-.6-.4-.2-.3-.3-.8-.4-1.5-.2-.9-.2-1.6-.3-2.4,0-.7,0-1.3,0-1.9,0-.5.2-1,.4-1.3.2-.3.4-.5.7-.6.3,0,.6,0,.8.3s.7.7,1.1,1.3c.2.3.3.5.5.7.2.2.3.4.5.6.2.2.3.3.5.3.1,0,.3.1.4,0,0,0,.2,0,.3-.1,0,0,.2-.2.3-.3,0-.2.2-.4.3-.7.1-.3.2-.7.4-1.2,0-.3.2-.5.2-.7,0-.2.1-.3.2-.5,0-.1.2-.2.3-.3.1,0,.2-.1.4-.1.2,0,.3,0,.5.2.2.1.4.3.6.6.2.3.4.6.6.9s.4.7.6,1.1c.2.4.4.8.6,1.2.2.4.4.8.6,1.1,0,.1,0,.2.1.2,0,0,0,0,0,.2,0,0,0,.2,0,.3,0,0,0,.2-.2.3s-.2.2-.3.2c-.1,0-.2.1-.3.1s-.3,0-.3,0c0,0-.2,0-.2-.1s0-.2-.2-.3c0-.2-.2-.4-.3-.7-.1-.3-.3-.5-.4-.8-.2-.3-.3-.6-.5-.8-.1-.2-.3-.4-.4-.6-.1-.2-.2-.2-.3-.2Z"/>
    <path class="st0" d="M144.1,168.9c.2.1.3.3.3.4,0,.2,0,.3-.2.5-.1.2-.3.3-.3.3s-.1,0-.2,0c0,0-.2,0-.2,0,0,0-.2,0-.3-.1l-.5-.3c0,0-.2,0-.3,0,0,0-.1,0-.2,0-.2.2-.4.3-.7.4-.2.1-.5.2-.8.2-.3,0-.6,0-.9,0-.3,0-.6-.1-.8-.3-.3-.1-.5-.3-.7-.5-.2-.2-.3-.5-.4-.8,0-.3,0-.6,0-.9,0-.3.2-.5.4-.8,0,0,0,0,0-.1,0,0,0,0,0-.1,0,0,0,0,0,0s0,0,0-.1c-.2-.3-.4-.5-.6-.8-.2-.3-.3-.6-.3-.8,0-.4,0-.7,0-1,0-.3.2-.6.4-.8.2-.2.4-.5.7-.6.3-.2.6-.3,1-.3.3,0,.6,0,.9,0,.3,0,.6.1.9.2.3.1.5.3.7.5.2.2.3.5.4.9,0,.3,0,.6,0,.9,0,.3-.2.5-.3.8-.2.2-.3.4-.6.6-.2.2-.5.4-.7.6,0,0,0,0,0,0,0,0,0,0,0,.1,0,0,.1,0,.2.1l.7.5c.1,0,.2.1.2.1s0,0,0,0c0,0,0,0,0,0,0,0,0,0,0-.1s0,0,0-.1c0,0,0,0,0-.1,0,0,0-.1,0-.2,0,0,0-.1,0-.2,0,0,0-.2.1-.2,0,0,.2-.1.4-.2.1,0,.2,0,.3-.1,0,0,.1,0,.2,0,.2,0,.4,0,.4.1,0,0,0,.2,0,.2,0,0,0,.1,0,.2,0,.2,0,.4,0,.6s0,.5-.2.7c0,0,0,.1,0,.2,0,0,0,.2.2.2l.6.3ZM139,164.6c0,.3.3.7.6,1.1,0,.1.2.1.3.1,0,0,.1,0,.2,0,.1,0,.3-.2.4-.3.1-.1.2-.2.3-.4,0-.1.2-.3.2-.4,0-.1,0-.3,0-.4,0-.1,0-.3-.2-.4,0-.1-.2-.2-.3-.3-.1,0-.2-.1-.4-.1-.1,0-.3,0-.4,0-.1,0-.2,0-.3.1-.1,0-.2.1-.3.2,0,0-.1.2-.2.3,0,.1,0,.3,0,.5ZM140.7,169.2c.2,0,.3,0,.3-.1,0,0,0,0,0-.2,0,0,0-.2-.2-.2-.2-.1-.4-.2-.6-.4-.2-.1-.3-.2-.5-.4,0,0-.2-.1-.3,0,0,0-.1,0-.2.2,0,0,0,.1,0,.2,0,0,0,.1,0,.2,0,.3.2.6.5.7.2.1.5.2.9.1Z"/>
    <path class="st0" d="M149.3,166.9s0,0,0,0c0,0,0,0-.1,0,0,0,0,0-.1,0,0,0,0,0,0,0-.1,0-.3,0-.4-.1-.1-.1-.2-.3-.2-.5,0-.1,0-.3,0-.4,0-.1.2-.3.4-.4,0,0,0,0,.1-.1,0,0,0,0,0-.2,0-.2,0-.3-.1-.5,0-.2,0-.4-.2-.7,0,0,0,0,0-.1,0,0,0,0-.1-.1,0,0,0-.1-.1-.2,0,0,0-.2,0-.3,0,0,0-.2,0-.3,0-.1,0-.3.1-.4,0-.1.2-.2.3-.3.1-.1.4-.2.6-.2.1,0,.2,0,.3,0,0,0,.1,0,.2,0,0,0,.1,0,.2,0,0,0,0,0,.1,0,0,0,.2,0,.5-.1.2,0,.5-.2.9-.3.3-.1.7-.3,1.1-.4.4-.1.8-.3,1.2-.5.4-.2.8-.3,1.2-.5s.8-.3,1.1-.5c0,0,.2,0,.3,0,.1,0,.2,0,.3,0,0,0,.1,0,.2.2,0,0,0,.1.1.2,0,0,0,.2,0,.2,0,.1,0,.3,0,.4,0,.1-.2.2-.4.4-.5.2-1,.5-1.5.7-.5.2-1,.4-1.5.6-.5.2-1,.4-1.5.5-.5.2-1,.3-1.5.5,0,0-.1,0-.1.1,0,0,0,.1,0,.2v.3c0,0,0,.2.1.3,0,0,0,.2,0,.2,0,0,0,.1.1.2,0,0,0,0,.1,0,.1,0,.3,0,.6-.2.3,0,.5-.2.8-.3.3-.1.6-.3,1-.4s.7-.3,1-.4.6-.2.8-.3c.2,0,.4-.1.5-.2.1,0,.3,0,.4,0,0,0,.2.2.2.4,0,0,0,0,0,0,0,0,0,0,0,0,0,.1,0,.3,0,.4,0,.1-.2.3-.4.4,0,0-.2,0-.4.2s-.4.2-.6.3-.5.2-.8.3c-.3.1-.6.2-.8.4-.3.1-.5.2-.8.3-.2.1-.4.2-.6.2-.1,0-.2.1-.2.1,0,0,0,0,0,0,0,.1.1.2.2.3s.3.1.4.2c.2,0,.4,0,.6.1s.4,0,.7,0c.2,0,.4,0,.7,0,.2,0,.4,0,.6,0s.2,0,.3,0,.3,0,.5,0,.3,0,.5-.1c.2,0,.3,0,.5-.2.1,0,.3-.1.3-.2,0,0,.1-.1.1-.2,0,0,0-.1,0-.2,0,0,0-.1,0-.2,0-.1,0-.2,0-.3s0-.2.2-.3c0,0,.2-.2.3-.2s.2-.1.3-.1c.1,0,.3,0,.4,0,.1,0,.3,0,.4.2.1,0,.2.2.3.3,0,.1.1.2.1.4,0,.3,0,.7-.2.9-.2.3-.5.6-.9.8-.4.2-.8.4-1.3.6s-1,.3-1.5.4c-.6.1-1.1.2-1.7.2-.5,0-1,0-1.4-.1-.4-.1-.8-.3-1.1-.5-.3-.2-.6-.5-.9-.9,0-.1-.2-.2-.2-.1Z"/>
    <path class="st0" d="M160,160.9c0,0-.2,0-.3.1-.2,0-.4,0-.6-.3,0,0,0-.1,0-.2,0,0,0,0,0-.1,0-.2,0-.4.3-.6.5-.3,1-.6,1.6-.8.5-.2,1.1-.4,1.7-.5.3,0,.5,0,.8,0,.3,0,.5,0,.8.2.2.1.4.3.6.5.2.2.3.5.3.8,0,.2,0,.5,0,.7s-.2.5-.3.7c-.1.2-.3.5-.5.7-.2.2-.4.4-.6.6-.2.2-.4.4-.6.5-.2.2-.4.3-.5.4-.1.1-.2.2-.2.3,0,.1.1.2.3.2.6,0,1.2.2,1.8.2.6,0,1.2.2,1.9.3.3,0,.5.2.5.4,0,.1,0,.2,0,.3,0,.1,0,.2-.1.3-.1.2-.3.4-.5.4,0,0-.2,0-.3,0-.4,0-.7-.1-1.1-.2s-.8-.1-1.2-.2c-.4,0-.8-.1-1.2-.2-.4,0-.8-.1-1.1-.2-.1,0-.2,0-.2,0,0,0,0,0,0,0,0,0,0,0,0,.1,0,0,0,0,0,0s0,0,0,0c0,0,0,.2.1.3,0,.1,0,.2.1.4,0,.1,0,.3.1.4,0,.1,0,.2,0,.3,0,.3,0,.5-.4.7l-.3.2s0,0-.1,0c0,0,0,0-.1,0-.3,0-.5,0-.6-.4-.3-.9-.6-1.8-1-2.7-.4-.9-.7-1.7-1.1-2.6,0,0,0,0,0-.1s0,0,0-.1c0-.3,0-.5.3-.6.1,0,.2,0,.3-.1,0,0,.1,0,.2,0,0,0,0,0,0,0s0,0,0,0c.3,0,.5,0,.6.4.2.4.4.8.5,1.1.2.4.3.7.5,1.1,0,.2.2.2.3.2,0,0,0,0,.1,0,0,0,0,0,.1,0,.1-.1.3-.3.5-.4s.4-.4.7-.6c.2-.2.4-.4.7-.6.2-.2.4-.4.6-.6.2-.2.3-.4.4-.6s.1-.4,0-.5c0,0,0-.2,0-.2,0,0-.1-.1-.2-.2,0,0-.2,0-.3,0-.1,0-.3,0-.5,0-.2,0-.4,0-.6.2-.2,0-.4.2-.6.2-.2,0-.4.2-.6.3-.2.1-.4.2-.5.3Z"/>
    <path class="st0" d="M169.3,166.2c0-.2,0-.4-.1-.7,0-.3-.1-.6-.2-.9,0-.3-.2-.7-.3-1,0-.4-.2-.7-.3-1.1s-.2-.7-.3-1-.2-.6-.2-.9c-.1-.4-.2-.7-.3-.8-.1-.2-.2-.2-.4-.2-.2,0-.2,0-.3.2,0,0,0,.2,0,.3,0,.1,0,.3,0,.4,0,.2,0,.3,0,.4,0,.1,0,.3-.2.4-.1.1-.3.2-.6.2-.2,0-.4,0-.5-.2-.2-.1-.3-.4-.3-.7,0-.4,0-.8.2-1.2.2-.4.5-.8.9-1.1.4-.3.9-.6,1.6-.9.6-.3,1.3-.5,2.1-.6.6-.1,1.1-.1,1.6,0,.5,0,1,.1,1.3.3.4.2.7.4,1,.6.3.3.4.6.5.9,0,.4,0,.8-.1,1.2-.2.4-.4.8-.8,1.2-.4.4-.8.7-1.3,1.1-.5.3-1.1.6-1.7.9-.2,0-.2.2-.2.4,0,.1,0,.3.1.5,0,.2.1.4.2.6,0,.2.1.4.2.6,0,.2,0,.4.1.5,0,.3,0,.5,0,.7-.1.1-.3.2-.6.3-.2,0-.4,0-.6,0-.2,0-.2-.2-.3-.3ZM172.9,159.2c0-.2-.1-.3-.3-.5-.2-.1-.4-.2-.7-.3-.3,0-.6-.1-.9-.1-.3,0-.7,0-1.1,0-.2,0-.3,0-.4.1-.1,0-.2,0-.3.1,0,0-.1,0-.1.1,0,0,0,.1,0,.2,0,0,0,.2,0,.4s.1.4.2.6c0,.2.1.5.2.8,0,.3.1.5.2.7,0,.2,0,.3.1.3,0,0,0,0,.1,0,.2,0,.4,0,.6-.2.2,0,.4-.2.7-.4.2-.1.4-.3.6-.5.2-.2.4-.3.5-.5.2-.2.3-.4.4-.5,0-.2.1-.3,0-.5Z"/>
  </g>
</svg>